mtllib daraz_door.mtl
o daraz_door
v 0.75 3.14646 0.850894
v 0.75 3.14646 0.750894
v 0.75 0.14646 0.750894
v 0.75 0.14646 0.750894
v 0.75 0.14646 0.850894
v 0.75 3.14646 0.850894
v 0.75 3.14646 0.850894
v -0.75 3.14646 0.850894
v -0.75 3.14646 0.750894
v -0.75 3.14646 0.750894
v 0.75 3.14646 0.750894
v 0.75 3.14646 0.850894
v 0.75 3.14646 0.850894
v 0.75 0.14646 0.850894
v 0.327168 2.265615 0.850894
v 0.75 0.14646 0.850894
v -0.75 0.14646 0.850894
v 0.327168 2.265615 0.850894
v 0.351235 2.348931 0.850894
v 0.75 3.14646 0.850894
v 0.356457 2.336325 0.850894
v 0.356457 2.336325 0.850894
v 0.344933 2.336325 0.850894
v 0.351235 2.348931 0.850894
v 0.356457 2.336325 0.850894
v 0.315441 2.277341 0.850894
v 0.344933 2.336325 0.850894
v 0.75 3.14646 0.850894
v 0.327168 2.265615 0.850894
v 0.356457 2.336325 0.850894
v 0.304982 2.256425 0.850894
v 0.315441 2.277341 0.850894
v 0.327168 2.265615 0.850894
v 0.327168 2.265615 0.850894
v -0.75 0.14646 0.850894
v 0.304982 2.256425 0.850894
v 0.304982 2.256425 0.850894
v -0.75 0.14646 0.850894
v 0.256457 2.236325 0.850894
v 0.256457 2.236325 0.850894
v -0.75 0.14646 0.850894
v 0.185746 2.265615 0.850894
v -0.75 0.14646 0.850894
v 0.070711 2.575749 0.850894
v 0.156457 2.336325 0.850894
v 0.185746 2.265615 0.850894
v -0.75 0.14646 0.850894
v 0.156457 2.336325 0.850894
v 0.156457 2.336325 0.850894
v 0.070711 2.575749 0.850894
v 0.185746 2.407036 0.850894
v 0.070711 2.575749 0.850894
v 0.75 3.14646 0.850894
v 0.256457 2.436325 0.850894
v 0.256457 2.436325 0.850894
v 0.185746 2.407036 0.850894
v 0.070711 2.575749 0.850894
v 0.327168 2.407036 0.850894
v 0.75 3.14646 0.850894
v 0.351235 2.348931 0.850894
v 0.327168 2.407036 0.850894
v 0.256457 2.436325 0.850894
v 0.75 3.14646 0.850894
v 0.75 3.14646 0.850894
v 0.070711 2.575749 0.850894
v 0.1 2.64646 0.850894
v 0.070711 2.575749 0.850894
v -0.75 0.14646 0.850894
v -0 2.54646 0.850894
v -0.070711 2.575749 0.850894
v -0.75 0.14646 0.850894
v -0.143543 2.336325 0.850894
v -0.75 0.14646 0.850894
v -0.172832 2.265614 0.850894
v -0.143543 2.336325 0.850894
v -0.172832 2.265614 0.850894
v -0.75 0.14646 0.850894
v -0.243543 2.236325 0.850894
v -0.75 0.14646 0.850894
v -0.75 3.14646 0.850894
v -0.314254 2.265614 0.850894
v -0.243543 2.236325 0.850894
v -0.75 0.14646 0.850894
v -0.314254 2.265614 0.850894
v -0.314254 2.265614 0.850894
v -0.75 3.14646 0.850894
v -0.343543 2.336325 0.850894
v -0.343543 2.336325 0.850894
v -0.75 3.14646 0.850894
v -0.314254 2.407036 0.850894
v -0.314254 2.407036 0.850894
v -0.75 3.14646 0.850894
v -0.243543 2.436325 0.850894
v -0.75 3.14646 0.850894
v -0.070711 2.575749 0.850894
v -0.172832 2.407035 0.850894
v -0.070711 2.575749 0.850894
v -0.143543 2.336325 0.850894
v -0.172832 2.407035 0.850894
v -0.172832 2.407035 0.850894
v -0.243543 2.436325 0.850894
v -0.75 3.14646 0.850894
v -0 2.54646 0.850894
v -0.75 0.14646 0.850894
v -0.070711 2.575749 0.850894
v -0.070711 2.575749 0.850894
v -0.75 3.14646 0.850894
v -0.1 2.64646 0.850894
v -0.1 2.64646 0.850894
v -0.75 3.14646 0.850894
v -0.070711 2.717171 0.850894
v -0.75 3.14646 0.850894
v 0.75 3.14646 0.850894
v 0 2.74646 0.850894
v 0 2.74646 0.850894
v -0.070711 2.717171 0.850894
v -0.75 3.14646 0.850894
v 0.75 3.14646 0.850894
v 0.1 2.64646 0.850894
v 0.070711 2.717171 0.850894
v 0 2.74646 0.850894
v 0.75 3.14646 0.850894
v 0.070711 2.717171 0.850894
v -0.75 3.14646 0.750894
v -0.75 3.14646 0.850894
v -0.75 0.14646 0.850894
v -0.75 0.14646 0.850894
v -0.75 0.14646 0.750894
v -0.75 3.14646 0.750894
v -0.75 0.14646 0.850894
v 0.75 0.14646 0.850894
v 0.75 0.14646 0.750894
v 0.75 0.14646 0.750894
v -0.75 0.14646 0.750894
v -0.75 0.14646 0.850894
v 0.75 0.14646 0.750894
v 0.75 3.14646 0.750894
v 0.356457 2.336325 0.750894
v 0.75 0.14646 0.750894
v 0.356457 2.336325 0.750894
v 0.327168 2.265614 0.750894
v 0.200622 2.259453 0.750894
v 0.75 0.14646 0.750894
v 0.256457 2.236325 0.750894
v 0.256457 2.236325 0.750894
v 0.75 0.14646 0.750894
v 0.327168 2.265614 0.750894
v 0.185746 2.407036 0.750894
v 0.1 2.64646 0.750894
v 0.171311 2.372186 0.750894
v 0.185746 2.407036 0.750894
v 0.256457 2.436325 0.750894
v 0.1 2.64646 0.750894
v 0.75 3.14646 0.750894
v 0.1 2.64646 0.750894
v 0.327168 2.407036 0.750894
v 0.356457 2.336325 0.750894
v 0.75 3.14646 0.750894
v 0.327168 2.407036 0.750894
v 0.327168 2.407036 0.750894
v 0.1 2.64646 0.750894
v 0.256457 2.436325 0.750894
v 0.185746 2.265614 0.750894
v 0.200622 2.259453 0.750894
v 0.196281 2.276149 0.750894
v 0.185746 2.265614 0.750894
v 0.75 0.14646 0.750894
v 0.200622 2.259453 0.750894
v 0.070711 2.575749 0.750894
v 0.75 0.14646 0.750894
v 0.156457 2.336325 0.750894
v 0.75 0.14646 0.750894
v 0.185746 2.265614 0.750894
v 0.156457 2.336325 0.750894
v 0.156457 2.336325 0.750894
v 0.1 2.64646 0.750894
v 0.070711 2.575749 0.750894
v 0.171311 2.372186 0.750894
v 0.1 2.64646 0.750894
v 0.156457 2.336325 0.750894
v 0.75 0.14646 0.750894
v 0.070711 2.575749 0.750894
v -0 2.54646 0.750894
v 0.75 0.14646 0.750894
v -0.070711 2.57575 0.750894
v -0.143543 2.336325 0.750894
v 0.75 0.14646 0.750894
v -0.143543 2.336325 0.750894
v -0.172832 2.265615 0.750894
v -0.308356 2.263171 0.750894
v 0.75 0.14646 0.750894
v -0.243543 2.236325 0.750894
v -0.243543 2.236325 0.750894
v 0.75 0.14646 0.750894
v -0.172832 2.265615 0.750894
v -0.343543 2.336325 0.750894
v -0.75 3.14646 0.750894
v -0.336834 2.320127 0.750894
v -0.75 3.14646 0.750894
v -0.343543 2.336325 0.750894
v -0.314254 2.407036 0.750894
v -0.314254 2.407036 0.750894
v -0.243543 2.436325 0.750894
v -0.75 3.14646 0.750894
v -0.070711 2.57575 0.750894
v -0.75 3.14646 0.750894
v -0.172832 2.407036 0.750894
v -0.143543 2.336325 0.750894
v -0.070711 2.57575 0.750894
v -0.172832 2.407036 0.750894
v -0.243543 2.436325 0.750894
v -0.172832 2.407036 0.750894
v -0.75 3.14646 0.750894
v 0.75 0.14646 0.750894
v -0 2.54646 0.750894
v -0.070711 2.57575 0.750894
v -0.75 3.14646 0.750894
v -0.070711 2.57575 0.750894
v -0.1 2.64646 0.750894
v -0.1 2.64646 0.750894
v -0.070711 2.717171 0.750894
v -0.75 3.14646 0.750894
v 0.75 3.14646 0.750894
v -0.75 3.14646 0.750894
v 0 2.74646 0.750894
v -0.070711 2.717171 0.750894
v 0 2.74646 0.750894
v -0.75 3.14646 0.750894
v 0.1 2.64646 0.750894
v 0.75 3.14646 0.750894
v 0.070711 2.717171 0.750894
v 0.75 3.14646 0.750894
v 0 2.74646 0.750894
v 0.070711 2.717171 0.750894
v -0.75 3.14646 0.750894
v -0.75 0.14646 0.750894
v -0.314254 2.265615 0.750894
v -0.75 0.14646 0.750894
v 0.75 0.14646 0.750894
v -0.314254 2.265615 0.750894
v -0.336834 2.320127 0.750894
v -0.75 3.14646 0.750894
v -0.314254 2.265615 0.750894
v -0.314254 2.265615 0.750894
v -0.311136 2.268732 0.750894
v -0.336834 2.320127 0.750894
v -0.314254 2.265615 0.750894
v -0.308356 2.263171 0.750894
v -0.311136 2.268732 0.750894
v -0.314254 2.265615 0.750894
v 0.75 0.14646 0.750894
v -0.308356 2.263171 0.750894
v 0.1 2.64646 0.750894
v 0.070711 2.575749 0.850894
v 0.070711 2.575749 0.750894
v 0.070711 2.575749 0.850894
v 0.1 2.64646 0.750894
v 0.1 2.64646 0.850894
v 0.070711 2.575749 0.750894
v -0 2.54646 0.850894
v -0 2.54646 0.750894
v -0 2.54646 0.850894
v 0.070711 2.575749 0.750894
v 0.070711 2.575749 0.850894
v -0 2.54646 0.750894
v -0.070711 2.575749 0.850894
v -0.070711 2.57575 0.750894
v -0.070711 2.575749 0.850894
v -0 2.54646 0.750894
v -0 2.54646 0.850894
v -0.070711 2.57575 0.750894
v -0.1 2.64646 0.850894
v -0.1 2.64646 0.750894
v -0.1 2.64646 0.850894
v -0.070711 2.57575 0.750894
v -0.070711 2.575749 0.850894
v -0.1 2.64646 0.750894
v -0.070711 2.717171 0.850894
v -0.070711 2.717171 0.750894
v -0.070711 2.717171 0.850894
v -0.1 2.64646 0.750894
v -0.1 2.64646 0.850894
v -0.070711 2.717171 0.750894
v 0 2.74646 0.850894
v 0 2.74646 0.750894
v 0 2.74646 0.850894
v -0.070711 2.717171 0.750894
v -0.070711 2.717171 0.850894
v 0 2.74646 0.750894
v 0.070711 2.717171 0.850894
v 0.070711 2.717171 0.750894
v 0.070711 2.717171 0.850894
v 0 2.74646 0.750894
v 0 2.74646 0.850894
v 0.070711 2.717171 0.750894
v 0.1 2.64646 0.850894
v 0.1 2.64646 0.750894
v 0.1 2.64646 0.850894
v 0.070711 2.717171 0.750894
v 0.070711 2.717171 0.850894
v -0.143543 2.336325 0.750894
v -0.172832 2.265614 0.850894
v -0.172832 2.265615 0.750894
v -0.172832 2.265614 0.850894
v -0.143543 2.336325 0.750894
v -0.143543 2.336325 0.850894
v -0.172832 2.265615 0.750894
v -0.243543 2.236325 0.850894
v -0.243543 2.236325 0.750894
v -0.243543 2.236325 0.850894
v -0.172832 2.265615 0.750894
v -0.172832 2.265614 0.850894
v -0.308356 2.263171 0.750894
v -0.314254 2.265614 0.850894
v -0.314254 2.265615 0.750894
v -0.314254 2.265614 0.850894
v -0.308356 2.263171 0.750894
v -0.243543 2.236325 0.750894
v -0.314254 2.265614 0.850894
v -0.243543 2.236325 0.750894
v -0.243543 2.236325 0.850894
v -0.336834 2.320127 0.750894
v -0.343543 2.336325 0.850894
v -0.343543 2.336325 0.750894
v -0.343543 2.336325 0.850894
v -0.336834 2.320127 0.750894
v -0.314254 2.265615 0.750894
v -0.343543 2.336325 0.850894
v -0.314254 2.265615 0.750894
v -0.314254 2.265614 0.850894
v -0.343543 2.336325 0.750894
v -0.314254 2.407036 0.850894
v -0.314254 2.407036 0.750894
v -0.314254 2.407036 0.850894
v -0.343543 2.336325 0.750894
v -0.343543 2.336325 0.850894
v -0.314254 2.407036 0.750894
v -0.243543 2.436325 0.850894
v -0.243543 2.436325 0.750894
v -0.243543 2.436325 0.850894
v -0.314254 2.407036 0.750894
v -0.314254 2.407036 0.850894
v -0.243543 2.436325 0.750894
v -0.172832 2.407035 0.850894
v -0.172832 2.407036 0.750894
v -0.172832 2.407035 0.850894
v -0.243543 2.436325 0.750894
v -0.243543 2.436325 0.850894
v -0.172832 2.407036 0.750894
v -0.143543 2.336325 0.850894
v -0.143543 2.336325 0.750894
v -0.143543 2.336325 0.850894
v -0.172832 2.407036 0.750894
v -0.172832 2.407035 0.850894
v 0.356457 2.336325 0.750894
v 0.327168 2.265615 0.850894
v 0.327168 2.265614 0.750894
v 0.327168 2.265615 0.850894
v 0.356457 2.336325 0.750894
v 0.356457 2.336325 0.850894
v 0.327168 2.265614 0.750894
v 0.256457 2.236325 0.850894
v 0.256457 2.236325 0.750894
v 0.256457 2.236325 0.850894
v 0.327168 2.265614 0.750894
v 0.327168 2.265615 0.850894
v 0.200622 2.259453 0.750894
v 0.185746 2.265615 0.850894
v 0.185746 2.265614 0.750894
v 0.185746 2.265615 0.850894
v 0.200622 2.259453 0.750894
v 0.256457 2.236325 0.750894
v 0.185746 2.265615 0.850894
v 0.256457 2.236325 0.750894
v 0.256457 2.236325 0.850894
v 0.185746 2.265614 0.750894
v 0.156457 2.336325 0.850894
v 0.156457 2.336325 0.750894
v 0.156457 2.336325 0.850894
v 0.185746 2.265614 0.750894
v 0.185746 2.265615 0.850894
v 0.171311 2.372186 0.750894
v 0.185746 2.407036 0.850894
v 0.185746 2.407036 0.750894
v 0.185746 2.407036 0.850894
v 0.171311 2.372186 0.750894
v 0.156457 2.336325 0.750894
v 0.185746 2.407036 0.850894
v 0.156457 2.336325 0.750894
v 0.156457 2.336325 0.850894
v 0.185746 2.407036 0.750894
v 0.256457 2.436325 0.850894
v 0.256457 2.436325 0.750894
v 0.256457 2.436325 0.850894
v 0.185746 2.407036 0.750894
v 0.185746 2.407036 0.850894
v 0.256457 2.436325 0.750894
v 0.327168 2.407036 0.850894
v 0.327168 2.407036 0.750894
v 0.327168 2.407036 0.850894
v 0.256457 2.436325 0.750894
v 0.256457 2.436325 0.850894
v 0.327168 2.407036 0.750894
v 0.356457 2.336325 0.850894
v 0.356457 2.336325 0.750894
v 0.351235 2.348931 0.850894
v 0.327168 2.407036 0.750894
v 0.327168 2.407036 0.850894
v 0.327168 2.407036 0.750894
v 0.351235 2.348931 0.850894
v 0.356457 2.336325 0.850894
vt 0 0
vt 0 1
vt 1 1
vt 1 1
vt 1 0
vt 0 0
vt 0 0
vt 0 1
vt 1 1
vt 1 1
vt 1 0
vt 0 0
vt 0 0
vt 0 1
vt 0.281738 0.293457
vt 0 1
vt 1 1
vt 0.281738 0.293457
vt 0.265625 0.265625
vt 0 0
vt 0.261475 0.269287
vt 0.261475 0.269287
vt 0.27002 0.27002
vt 0.265625 0.265625
vt 0.261475 0.269287
vt 0.289551 0.289551
vt 0.27002 0.27002
vt 0 0
vt 0.281738 0.293457
vt 0.261475 0.269287
vt 0.296631 0.296631
vt 0.289551 0.289551
vt 0.281738 0.293457
vt 0.281738 0.293457
vt 1 1
vt 0.296631 0.296631
vt 0.296631 0.296631
vt 1 1
vt 0.328857 0.303223
vt 0.328857 0.303223
vt 1 1
vt 0.375977 0.293457
vt 1 1
vt 0.452637 0.190186
vt 0.395508 0.27002
vt 0.375977 0.293457
vt 1 1
vt 0.395508 0.27002
vt 0.395508 0.27002
vt 0.452637 0.190186
vt 0.375977 0.24646
vt 0.452637 0.190186
vt 0 0
vt 0.328857 0.236694
vt 0.328857 0.236694
vt 0.375977 0.24646
vt 0.452637 0.190186
vt 0.281738 0.24646
vt 0 0
vt 0.265625 0.265625
vt 0.281738 0.24646
vt 0.328857 0.236694
vt 0 0
vt 0 0
vt 0.452637 0.190186
vt 0.433105 0.166626
vt 0.452637 0.190186
vt 1 1
vt 0.499756 0.199951
vt 0.546875 0.190186
vt 1 1
vt 0.595215 0.27002
vt 1 1
vt 0.614746 0.293457
vt 0.595215 0.27002
vt 0.614746 0.293457
vt 1 1
vt 0.662109 0.303223
vt 1 1
vt 1 0
vt 0.709473 0.293457
vt 0.662109 0.303223
vt 1 1
vt 0.709473 0.293457
vt 0.709473 0.293457
vt 1 0
vt 0.729004 0.27002
vt 0.729004 0.27002
vt 1 0
vt 0.709473 0.24646
vt 0.709473 0.24646
vt 1 0
vt 0.662109 0.236694
vt 1 0
vt 0.546875 0.190186
vt 0.614746 0.24646
vt 0.546875 0.190186
vt 0.595215 0.27002
vt 0.614746 0.24646
vt 0.614746 0.24646
vt 0.662109 0.236694
vt 1 0
vt 0.499756 0.199951
vt 1 1
vt 0.546875 0.190186
vt 0.546875 0.190186
vt 1 0
vt 0.566406 0.166626
vt 0.566406 0.166626
vt 1 0
vt 0.546875 0.143066
vt 1 0
vt 0 0
vt 0.499756 0.133301
vt 0.499756 0.133301
vt 0.546875 0.143066
vt 1 0
vt 0 0
vt 0.433105 0.166626
vt 0.452637 0.143066
vt 0.499756 0.133301
vt 0 0
vt 0.452637 0.143066
vt 0 0
vt 0 1
vt 1 1
vt 1 1
vt 1 0
vt 0 0
vt 0 0
vt 0 1
vt 1 1
vt 1 1
vt 1 0
vt 0 0
vt 0 0
vt 0 1
vt 0.262207 0.729492
vt 0 0
vt 0.262207 0.729492
vt 0.281738 0.706055
vt 0.366211 0.704102
vt 0 0
vt 0.328857 0.696289
vt 0.328857 0.696289
vt 0 0
vt 0.281738 0.706055
vt 0.375977 0.753418
vt 0.433105 0.833008
vt 0.385742 0.741699
vt 0.375977 0.753418
vt 0.328857 0.763184
vt 0.433105 0.833008
vt 0 1
vt 0.433105 0.833008
vt 0.281738 0.753418
vt 0.262207 0.729492
vt 0 1
vt 0.281738 0.753418
vt 0.281738 0.753418
vt 0.433105 0.833008
vt 0.328857 0.763184
vt 0.375977 0.706055
vt 0.366211 0.704102
vt 0.369141 0.709473
vt 0.375977 0.706055
vt 0 0
vt 0.366211 0.704102
vt 0.452637 0.80957
vt 0 0
vt 0.395508 0.729492
vt 0 0
vt 0.375977 0.706055
vt 0.395508 0.729492
vt 0.395508 0.729492
vt 0.433105 0.833008
vt 0.452637 0.80957
vt 0.385742 0.741699
vt 0.433105 0.833008
vt 0.395508 0.729492
vt 0 0
vt 0.452637 0.80957
vt 0.499756 0.799805
vt 0 0
vt 0.546875 0.80957
vt 0.595215 0.729492
vt 0 0
vt 0.595215 0.729492
vt 0.614746 0.706055
vt 0.705566 0.705566
vt 0 0
vt 0.662109 0.696289
vt 0.662109 0.696289
vt 0 0
vt 0.614746 0.706055
vt 0.729004 0.729492
vt 1 1
vt 0.724121 0.724121
vt 1 1
vt 0.729004 0.729492
vt 0.709473 0.753418
vt 0.709473 0.753418
vt 0.662109 0.763184
vt 1 1
vt 0.546875 0.80957
vt 1 1
vt 0.614746 0.753418
vt 0.595215 0.729492
vt 0.546875 0.80957
vt 0.614746 0.753418
vt 0.662109 0.763184
vt 0.614746 0.753418
vt 1 1
vt 0 0
vt 0.499756 0.799805
vt 0.546875 0.80957
vt 1 1
vt 0.546875 0.80957
vt 0.566406 0.833008
vt 0.566406 0.833008
vt 0.546875 0.856445
vt 1 1
vt 0 1
vt 1 1
vt 0.5 0.866211
vt 0.546875 0.856445
vt 0.5 0.866211
vt 1 1
vt 0.433105 0.833008
vt 0 1
vt 0.452637 0.856445
vt 0 1
vt 0.5 0.866211
vt 0.452637 0.856445
vt 1 1
vt 1 0
vt 0.709473 0.706055
vt 1 0
vt 0 0
vt 0.709473 0.706055
vt 0.724121 0.724121
vt 1 1
vt 0.709473 0.706055
vt 0.709473 0.706055
vt 0.707031 0.707031
vt 0.724121 0.724121
vt 0.709473 0.706055
vt 0.705566 0.705566
vt 0.707031 0.707031
vt 0.709473 0.706055
vt 0 0
vt 0.705566 0.705566
vt 0 0
vt 0.125 1
vt 0.125 0
vt 0.125 1
vt 0 0
vt 0 1
vt 0.125 0
vt 0.25 1
vt 0.25 0
vt 0.25 1
vt 0.125 0
vt 0.125 1
vt 0.25 0
vt 0.375 1
vt 0.375 0
vt 0.375 1
vt 0.25 0
vt 0.25 1
vt 0.375 0
vt 0.5 1
vt 0.5 0
vt 0.5 1
vt 0.375 0
vt 0.375 1
vt 0.5 0
vt 0.625 1
vt 0.625 0
vt 0.625 1
vt 0.5 0
vt 0.5 1
vt 0.625 0
vt 0.75 1
vt 0.75 0
vt 0.75 1
vt 0.625 0
vt 0.625 1
vt 0.75 0
vt 0.875 1
vt 0.875 0
vt 0.875 1
vt 0.75 0
vt 0.75 1
vt 0.875 0
vt 1 1
vt 1 0
vt 1 1
vt 0.875 0
vt 0.875 1
vt 0 0
vt 0.125 1
vt 0.125 0
vt 0.125 1
vt 0 0
vt 0 1
vt 0.125 0
vt 0.25 1
vt 0.25 0
vt 0.25 1
vt 0.125 0
vt 0.125 1
vt 0.364502 0
vt 0.375 1
vt 0.375 0
vt 0.375 1
vt 0.364502 0
vt 0.25 0
vt 0.375 1
vt 0.25 0
vt 0.25 1
vt 0.471191 0
vt 0.5 1
vt 0.5 0
vt 0.5 1
vt 0.471191 0
vt 0.375 0
vt 0.5 1
vt 0.375 0
vt 0.375 1
vt 0.5 0
vt 0.625 1
vt 0.625 0
vt 0.625 1
vt 0.5 0
vt 0.5 1
vt 0.625 0
vt 0.75 1
vt 0.75 0
vt 0.75 1
vt 0.625 0
vt 0.625 1
vt 0.75 0
vt 0.875 1
vt 0.875 0
vt 0.875 1
vt 0.75 0
vt 0.75 1
vt 0.875 0
vt 1 1
vt 1 0
vt 1 1
vt 0.875 0
vt 0.875 1
vt 0 0
vt 0.125 1
vt 0.125 0
vt 0.125 1
vt 0 0
vt 0 1
vt 0.125 0
vt 0.25 1
vt 0.25 0
vt 0.25 1
vt 0.125 0
vt 0.125 1
vt 0.348633 0
vt 0.375 1
vt 0.375 0
vt 0.375 1
vt 0.348633 0
vt 0.25 0
vt 0.375 1
vt 0.25 0
vt 0.25 1
vt 0.375 0
vt 0.5 1
vt 0.5 0
vt 0.5 1
vt 0.375 0
vt 0.375 1
vt 0.562988 0
vt 0.625 1
vt 0.625 0
vt 0.625 1
vt 0.562988 0
vt 0.5 0
vt 0.625 1
vt 0.5 0
vt 0.5 1
vt 0.625 0
vt 0.75 1
vt 0.75 0
vt 0.75 1
vt 0.625 0
vt 0.625 1
vt 0.75 0
vt 0.875 1
vt 0.875 0
vt 0.875 1
vt 0.75 0
vt 0.75 1
vt 0.875 0
vt 1 1
vt 1 0
vt 0.977539 1
vt 0.875 0
vt 0.875 1
vt 0.875 0
vt 0.977539 1
vt 1 1
vn 1 0 0
vn 1 0 0
vn 1 0 0
vn 1 0 0
vn 1 0 0
vn 1 0 0
vn 0 1 0
vn 0 1 0
vn 0 1 0
vn 0 1 0
vn 0 1 0
vn 0 1 0
vn 0 0 1
vn 0 0 1
vn 0 0 1
vn 0 0 1
vn 0 0 1
vn 0 0 1
vn 0 0 1
vn 0 0 1
vn 0 0 1
vn 0 0 1
vn 0 0 1
vn 0 0 1
vn 0 0 1
vn 0 0 1
vn 0 0 1
vn 0 0 1
vn 0 0 1
vn 0 0 1
vn 0 0 1
vn 0 0 1
vn 0 0 1
vn 0 0 1
vn 0 0 1
vn 0 0 1
vn 0 0 1
vn 0 0 1
vn 0 0 1
vn 0 0 1
vn 0 0 1
vn 0 0 1
vn 0 0 1
vn 0 0 1
vn 0 0 1
vn 0 0 1
vn 0 0 1
vn 0 0 1
vn 0 0 1
vn 0 0 1
vn 0 0 1
vn 0 0 1
vn 0 0 1
vn 0 0 1
vn 0 0 1
vn 0 0 1
vn 0 0 1
vn 0 0 1
vn 0 0 1
vn 0 0 1
vn 0 0 1
vn 0 0 1
vn 0 0 1
vn 0 0 1
vn 0 0 1
vn 0 0 1
vn 0 0 1
vn 0 0 1
vn 0 0 1
vn 0 0 1
vn 0 0 1
vn 0 0 1
vn 0 0 1
vn 0 0 1
vn 0 0 1
vn 0 0 1
vn 0 0 1
vn 0 0 1
vn 0 0 1
vn 0 0 1
vn 0 0 1
vn 0 0 1
vn 0 0 1
vn 0 0 1
vn 0 0 1
vn 0 0 1
vn 0 0 1
vn 0 0 1
vn 0 0 1
vn 0 0 1
vn 0 0 1
vn 0 0 1
vn 0 0 1
vn 0 0 1
vn 0 0 1
vn 0 0 1
vn 0 0 1
vn 0 0 1
vn 0 0 1
vn 0 0 1
vn 0 0 1
vn 0 0 1
vn 0 0 1
vn 0 0 1
vn 0 0 1
vn 0 0 1
vn 0 0 1
vn 0 0 1
vn 0 0 1
vn 0 0 1
vn 0 0 1
vn 0 0 1
vn 0 0 1
vn 0 0 1
vn 0 0 1
vn 0 0 1
vn 0 0 1
vn 0 0 1
vn 0 0 1
vn 0 0 1
vn 0 0 1
vn 0 0 1
vn 0 0 1
vn -1 0 0
vn -1 0 0
vn -1 0 0
vn -1 0 0
vn -1 0 0
vn -1 0 0
vn 0 -1 0
vn 0 -1 0
vn 0 -1 0
vn 0 -1 0
vn 0 -1 0
vn 0 -1 0
vn 0 0 -1
vn 0 0 -1
vn 0 0 -1
vn 0 0 -1
vn 0 0 -1
vn 0 0 -1
vn 0 0 -1
vn 0 0 -1
vn 0 0 -1
vn 0 0 -1
vn 0 0 -1
vn 0 0 -1
vn 0 0 -1
vn 0 0 -1
vn 0 0 -1
vn 0 0 -1
vn 0 0 -1
vn 0 0 -1
vn 0 0 -1
vn 0 0 -1
vn 0 0 -1
vn 0 0 -1
vn 0 0 -1
vn 0 0 -1
vn 0 0 -1
vn 0 0 -1
vn 0 0 -1
vn 0 0 -1
vn 0 0 -1
vn 0 0 -1
vn 0 0 -1
vn 0 0 -1
vn 0 0 -1
vn 0 0 -1
vn 0 0 -1
vn 0 0 -1
vn 0 0 -1
vn 0 0 -1
vn 0 0 -1
vn 0 0 -1
vn 0 0 -1
vn 0 0 -1
vn 0 0 -1
vn 0 0 -1
vn 0 0 -1
vn 0 0 -1
vn 0 0 -1
vn 0 0 -1
vn 0 0 -1
vn 0 0 -1
vn 0 0 -1
vn 0 0 -1
vn 0 0 -1
vn 0 0 -1
vn 0 0 -1
vn 0 0 -1
vn 0 0 -1
vn 0 0 -1
vn 0 0 -1
vn 0 0 -1
vn 0 0 -1
vn 0 0 -1
vn 0 0 -1
vn 0 0 -1
vn 0 0 -1
vn 0 0 -1
vn 0 0 -1
vn 0 0 -1
vn 0 0 -1
vn 0 0 -1
vn 0 0 -1
vn 0 0 -1
vn 0 0 -1
vn 0 0 -1
vn 0 0 -1
vn 0 0 -1
vn 0 0 -1
vn 0 0 -1
vn 0 0 -1
vn 0 0 -1
vn 0 0 -1
vn 0 0 -1
vn 0 0 -1
vn 0 0 -1
vn 0 0 -1
vn 0 0 -1
vn 0 0 -1
vn 0 0 -1
vn 0 0 -1
vn 0 0 -1
vn 0 0 -1
vn 0 0 -1
vn 0 0 -1
vn 0 0 -1
vn 0 0 -1
vn 0 0 -1
vn 0 0 -1
vn 0 0 -1
vn 0 0 -1
vn 0 0 -1
vn 0 0 -1
vn 0 0 -1
vn 0 0 -1
vn 0 0 -1
vn 0 0 -1
vn 0 0 -1
vn 0 0 -1
vn 0 0 -1
vn 0 0 -1
vn 0 0 -1
vn 0 0 -1
vn 0 0 -1
vn 0 0 -1
vn 0 0 -1
vn 0 0 -1
vn 0 0 -1
vn 0 0 -1
vn -0.362205 0.047244 -0.92126
vn -0.330709 0.251969 0.905512
vn -0.409449 0.543307 -0.724409
vn -0.330709 0.251969 0.905512
vn -0.362205 0.047244 -0.92126
vn -0.80315 -0.110236 0.574803
vn -0.409449 0.543307 -0.724409
vn -0.110236 0.80315 0.574803
vn 0.110236 0.80315 -0.574803
vn -0.110236 0.80315 0.574803
vn -0.409449 0.543307 -0.724409
vn -0.330709 0.251969 0.905512
vn 0.110236 0.80315 -0.574803
vn 0.291339 0.385827 0.866142
vn 0.385827 0.291339 -0.866142
vn 0.291339 0.385827 0.866142
vn 0.110236 0.80315 -0.574803
vn -0.110236 0.80315 0.574803
vn 0.385827 0.291339 -0.866142
vn 0.80315 0.110236 0.574803
vn 0.80315 -0.110236 -0.574803
vn 0.80315 0.110236 0.574803
vn 0.385827 0.291339 -0.866142
vn 0.291339 0.385827 0.866142
vn 0.80315 -0.110236 -0.574803
vn 0.645669 -0.488189 0.574803
vn 0.488189 -0.645669 -0.574803
vn 0.645669 -0.488189 0.574803
vn 0.80315 -0.110236 -0.574803
vn 0.80315 0.110236 0.574803
vn 0.488189 -0.645669 -0.574803
vn 0.086614 -0.669291 0.724409
vn -0.086614 -0.669291 -0.724409
vn 0.086614 -0.669291 0.724409
vn 0.488189 -0.645669 -0.574803
vn 0.645669 -0.488189 0.574803
vn -0.086614 -0.669291 -0.724409
vn -0.488189 -0.645669 0.574803
vn -0.645669 -0.488189 -0.574803
vn -0.488189 -0.645669 0.574803
vn -0.086614 -0.669291 -0.724409
vn 0.086614 -0.669291 0.724409
vn -0.645669 -0.488189 -0.574803
vn -0.80315 -0.110236 0.574803
vn -0.362205 0.047244 -0.92126
vn -0.80315 -0.110236 0.574803
vn -0.645669 -0.488189 -0.574803
vn -0.488189 -0.645669 0.574803
vn -0.669291 0.086614 -0.724409
vn -0.645669 0.488189 0.574803
vn -0.488189 0.645669 -0.574803
vn -0.645669 0.488189 0.574803
vn -0.669291 0.086614 -0.724409
vn -0.669291 -0.086614 0.724409
vn -0.488189 0.645669 -0.574803
vn -0.110236 0.80315 0.574803
vn 0.110236 0.80315 -0.574803
vn -0.110236 0.80315 0.574803
vn -0.488189 0.645669 -0.574803
vn -0.645669 0.488189 0.574803
vn 0.204724 0.511811 -0.826772
vn 0.425197 0.653543 0.622047
vn 0.330709 0.251969 -0.905512
vn 0.425197 0.653543 0.622047
vn 0.204724 0.511811 -0.826772
vn 0.110236 0.80315 -0.574803
vn 0.425197 0.653543 0.622047
vn 0.110236 0.80315 -0.574803
vn -0.110236 0.80315 0.574803
vn 0.511811 0.204724 -0.826772
vn 0.858268 0.173228 0.464567
vn 0.80315 -0.110236 -0.574803
vn 0.858268 0.173228 0.464567
vn 0.511811 0.204724 -0.826772
vn 0.330709 0.251969 -0.905512
vn 0.858268 0.173228 0.464567
vn 0.330709 0.251969 -0.905512
vn 0.425197 0.653543 0.622047
vn 0.80315 -0.110236 -0.574803
vn 0.645669 -0.488189 0.574803
vn 0.488189 -0.645669 -0.574803
vn 0.645669 -0.488189 0.574803
vn 0.80315 -0.110236 -0.574803
vn 0.858268 0.173228 0.464567
vn 0.488189 -0.645669 -0.574803
vn 0.110236 -0.80315 0.574803
vn -0.110236 -0.80315 -0.574803
vn 0.110236 -0.80315 0.574803
vn 0.488189 -0.645669 -0.574803
vn 0.645669 -0.488189 0.574803
vn -0.110236 -0.80315 -0.574803
vn -0.409449 -0.543307 0.724409
vn -0.543307 -0.409449 -0.724409
vn -0.409449 -0.543307 0.724409
vn -0.110236 -0.80315 -0.574803
vn 0.110236 -0.80315 0.574803
vn -0.543307 -0.409449 -0.724409
vn -0.669291 -0.086614 0.724409
vn -0.669291 0.086614 -0.724409
vn -0.669291 -0.086614 0.724409
vn -0.543307 -0.409449 -0.724409
vn -0.409449 -0.543307 0.724409
vn -0.669291 0.086614 -0.724409
vn -0.385827 0.291339 0.866142
vn -0.488189 0.645669 -0.574803
vn -0.385827 0.291339 0.866142
vn -0.669291 0.086614 -0.724409
vn -0.566929 -0.070866 0.818898
vn -0.488189 0.645669 -0.574803
vn -0.110236 0.80315 0.574803
vn 0.110236 0.80315 -0.574803
vn -0.110236 0.80315 0.574803
vn -0.488189 0.645669 -0.574803
vn -0.385827 0.291339 0.866142
vn 0.204724 0.511811 -0.826772
vn 0.480315 0.732283 0.464567
vn 0.543307 0.409449 -0.724409
vn 0.480315 0.732283 0.464567
vn 0.204724 0.511811 -0.826772
vn 0.110236 0.80315 -0.574803
vn 0.480315 0.732283 0.464567
vn 0.110236 0.80315 -0.574803
vn -0.110236 0.80315 0.574803
vn 0.543307 0.409449 -0.724409
vn 0.669291 0.086614 0.724409
vn 0.566929 -0.070866 -0.818898
vn 0.669291 0.086614 0.724409
vn 0.543307 0.409449 -0.724409
vn 0.480315 0.732283 0.464567
vn 0.645669 -0.267717 -0.700787
vn 0.732283 -0.480315 0.464567
vn 0.488189 -0.645669 -0.574803
vn 0.732283 -0.480315 0.464567
vn 0.645669 -0.267717 -0.700787
vn 0.566929 -0.070866 -0.818898
vn 0.732283 -0.480315 0.464567
vn 0.566929 -0.070866 -0.818898
vn 0.669291 0.086614 0.724409
vn 0.488189 -0.645669 -0.574803
vn 0.086614 -0.669291 0.724409
vn -0.110236 -0.80315 -0.574803
vn 0.086614 -0.669291 0.724409
vn 0.488189 -0.645669 -0.574803
vn 0.732283 -0.480315 0.464567
vn -0.110236 -0.80315 -0.574803
vn -0.488189 -0.645669 0.574803
vn -0.653543 -0.425197 -0.622047
vn -0.488189 -0.645669 0.574803
vn -0.110236 -0.80315 -0.574803
vn 0.086614 -0.669291 0.724409
vn -0.653543 -0.425197 -0.622047
vn -0.566929 -0.070866 0.818898
vn -0.669291 0.086614 -0.724409
vn -0.511811 -0.204724 0.826772
vn -0.653543 -0.425197 -0.622047
vn -0.488189 -0.645669 0.574803
vn -0.653543 -0.425197 -0.622047
vn -0.511811 -0.204724 0.826772
vn -0.566929 -0.070866 0.818898
g surface0
usemtl [SpatialMaterial:78676]
f 3/3/3 2/2/2 1/1/1
f 6/6/6 5/5/5 4/4/4
f 9/9/9 8/8/8 7/7/7
f 12/12/12 11/11/11 10/10/10
f 15/15/15 14/14/14 13/13/13
f 18/18/18 17/17/17 16/16/16
f 21/21/21 20/20/20 19/19/19
f 24/24/24 23/23/23 22/22/22
f 27/27/27 26/26/26 25/25/25
f 30/30/30 29/29/29 28/28/28
f 33/33/33 32/32/32 31/31/31
f 36/36/36 35/35/35 34/34/34
f 39/39/39 38/38/38 37/37/37
f 42/42/42 41/41/41 40/40/40
f 45/45/45 44/44/44 43/43/43
f 48/48/48 47/47/47 46/46/46
f 51/51/51 50/50/50 49/49/49
f 54/54/54 53/53/53 52/52/52
f 57/57/57 56/56/56 55/55/55
f 60/60/60 59/59/59 58/58/58
f 63/63/63 62/62/62 61/61/61
f 66/66/66 65/65/65 64/64/64
f 69/69/69 68/68/68 67/67/67
f 72/72/72 71/71/71 70/70/70
f 75/75/75 74/74/74 73/73/73
f 78/78/78 77/77/77 76/76/76
f 81/81/81 80/80/80 79/79/79
f 84/84/84 83/83/83 82/82/82
f 87/87/87 86/86/86 85/85/85
f 90/90/90 89/89/89 88/88/88
f 93/93/93 92/92/92 91/91/91
f 96/96/96 95/95/95 94/94/94
f 99/99/99 98/98/98 97/97/97
f 102/102/102 101/101/101 100/100/100
f 105/105/105 104/104/104 103/103/103
f 108/108/108 107/107/107 106/106/106
f 111/111/111 110/110/110 109/109/109
f 114/114/114 113/113/113 112/112/112
f 117/117/117 116/116/116 115/115/115
f 120/120/120 119/119/119 118/118/118
f 123/123/123 122/122/122 121/121/121
f 126/126/126 125/125/125 124/124/124
f 129/129/129 128/128/128 127/127/127
f 132/132/132 131/131/131 130/130/130
f 135/135/135 134/134/134 133/133/133
f 138/138/138 137/137/137 136/136/136
f 141/141/141 140/140/140 139/139/139
f 144/144/144 143/143/143 142/142/142
f 147/147/147 146/146/146 145/145/145
f 150/150/150 149/149/149 148/148/148
f 153/153/153 152/152/152 151/151/151
f 156/156/156 155/155/155 154/154/154
f 159/159/159 158/158/158 157/157/157
f 162/162/162 161/161/161 160/160/160
f 165/165/165 164/164/164 163/163/163
f 168/168/168 167/167/167 166/166/166
f 171/171/171 170/170/170 169/169/169
f 174/174/174 173/173/173 172/172/172
f 177/177/177 176/176/176 175/175/175
f 180/180/180 179/179/179 178/178/178
f 183/183/183 182/182/182 181/181/181
f 186/186/186 185/185/185 184/184/184
f 189/189/189 188/188/188 187/187/187
f 192/192/192 191/191/191 190/190/190
f 195/195/195 194/194/194 193/193/193
f 198/198/198 197/197/197 196/196/196
f 201/201/201 200/200/200 199/199/199
f 204/204/204 203/203/203 202/202/202
f 207/207/207 206/206/206 205/205/205
f 210/210/210 209/209/209 208/208/208
f 213/213/213 212/212/212 211/211/211
f 216/216/216 215/215/215 214/214/214
f 219/219/219 218/218/218 217/217/217
f 222/222/222 221/221/221 220/220/220
f 225/225/225 224/224/224 223/223/223
f 228/228/228 227/227/227 226/226/226
f 231/231/231 230/230/230 229/229/229
f 234/234/234 233/233/233 232/232/232
f 237/237/237 236/236/236 235/235/235
f 240/240/240 239/239/239 238/238/238
f 243/243/243 242/242/242 241/241/241
f 246/246/246 245/245/245 244/244/244
f 249/249/249 248/248/248 247/247/247
f 252/252/252 251/251/251 250/250/250
f 255/255/255 254/254/254 253/253/253
f 258/258/258 257/257/257 256/256/256
f 261/261/261 260/260/260 259/259/259
f 264/264/264 263/263/263 262/262/262
f 267/267/267 266/266/266 265/265/265
f 270/270/270 269/269/269 268/268/268
f 273/273/273 272/272/272 271/271/271
f 276/276/276 275/275/275 274/274/274
f 279/279/279 278/278/278 277/277/277
f 282/282/282 281/281/281 280/280/280
f 285/285/285 284/284/284 283/283/283
f 288/288/288 287/287/287 286/286/286
f 291/291/291 290/290/290 289/289/289
f 294/294/294 293/293/293 292/292/292
f 297/297/297 296/296/296 295/295/295
f 300/300/300 299/299/299 298/298/298
f 303/303/303 302/302/302 301/301/301
f 306/306/306 305/305/305 304/304/304
f 309/309/309 308/308/308 307/307/307
f 312/312/312 311/311/311 310/310/310
f 315/315/315 314/314/314 313/313/313
f 318/318/318 317/317/317 316/316/316
f 321/321/321 320/320/320 319/319/319
f 324/324/324 323/323/323 322/322/322
f 327/327/327 326/326/326 325/325/325
f 330/330/330 329/329/329 328/328/328
f 333/333/333 332/332/332 331/331/331
f 336/336/336 335/335/335 334/334/334
f 339/339/339 338/338/338 337/337/337
f 342/342/342 341/341/341 340/340/340
f 345/345/345 344/344/344 343/343/343
f 348/348/348 347/347/347 346/346/346
f 351/351/351 350/350/350 349/349/349
f 354/354/354 353/353/353 352/352/352
f 357/357/357 356/356/356 355/355/355
f 360/360/360 359/359/359 358/358/358
f 363/363/363 362/362/362 361/361/361
f 366/366/366 365/365/365 364/364/364
f 369/369/369 368/368/368 367/367/367
f 372/372/372 371/371/371 370/370/370
f 375/375/375 374/374/374 373/373/373
f 378/378/378 377/377/377 376/376/376
f 381/381/381 380/380/380 379/379/379
f 384/384/384 383/383/383 382/382/382
f 387/387/387 386/386/386 385/385/385
f 390/390/390 389/389/389 388/388/388
f 393/393/393 392/392/392 391/391/391
f 396/396/396 395/395/395 394/394/394
f 399/399/399 398/398/398 397/397/397
f 402/402/402 401/401/401 400/400/400
f 405/405/405 404/404/404 403/403/403
f 408/408/408 407/407/407 406/406/406
f 411/411/411 410/410/410 409/409/409
