mtllib shelf_body2.mtl
o shelf_body2
v 0.6 0.75 -3
v -0.6 0.75 -3
v -0.6 -0.75 -3
v -0.6 -0.75 -3
v 0.6 -0.75 -3
v 0.6 0.75 -3
v 0.6 0.75 -3
v 0.6 0.75 3
v -0.6 0.75 3
v -0.6 0.75 3
v -0.6 0.75 -3
v 0.6 0.75 -3
v 0.6 0.75 -3
v 0.6 -0.75 -3
v 0.6 0.65 -2.95
v 0.6 0.525 -2.95
v 0.6 -0.75 -3
v 0.6 -0.75 -2.95
v 0.6 0.65 -2.95
v 0.6 -0.75 -3
v 0.6 0.525 -2.95
v 0.6 0.65 -2.6
v 0.6 0.75 -3
v 0.6 0.65 -2.691667
v 0.6 0.75 -3
v 0.6 0.65 -2.95
v 0.6 0.65 -2.691667
v 0.6 -0.726316 0.3
v 0.6 -0.725 0.15
v 0.6 -0.75 0.3
v 0.6 -0.725 0.15
v 0.6 -0.75 0.15
v 0.6 -0.75 0.3
v 0.6 -0.15 0.3
v 0.6 -0.075 0.3
v 0.6 -0.0375 0.15
v 0.6 -0.158333 0.3
v 0.6 -0.15 0.3
v 0.6 -0.0375 0.15
v 0.6 -0.25 0.3
v 0.6 -0.158333 0.3
v 0.6 -0.0375 0.15
v 0.6 -0.0375 0.15
v 0.6 -0.726316 0.3
v 0.6 -0.25 0.3
v 0.6 -0.749123 2.9
v 0.6 -0.75 3
v 0.6 -0.725 2.9
v 0.6 -0.0375 0.15
v 0.6 -0.725 0.15
v 0.6 -0.726316 0.3
v 0.6 0.75 3
v 0.6 0.65 0.15
v 0.6 0.65 0.3
v 0.6 0.65 0.3
v 0.6 0.65 0.15
v 0.6 0.576316 0.3
v 0.6 -0.75 3
v 0.6 0.75 3
v 0.6 0.65 2.9
v 0.6 0.65 0.516667
v 0.6 0.65 2.9
v 0.6 0.75 3
v 0.6 0.75 3
v 0.6 0.65 0.3
v 0.6 0.65 0.516667
v 0.6 -0.25 2.9
v 0.6 -0.700877 2.9
v 0.6 -0.75 3
v 0.6 -0.75 3
v 0.6 -0.241667 2.9
v 0.6 -0.25 2.9
v 0.6 -0.75 3
v 0.6 -0.15 2.9
v 0.6 -0.241667 2.9
v 0.6 -0.75 3
v 0.6 0.65 2.9
v 0.6 -0.15 2.9
v 0.6 0.75 3
v 0.6 0.75 -3
v 0.6 0.65 0.15
v 0.6 0.525 0.3
v 0.6 -0.0375 0.15
v 0.6 -0.075 0.3
v 0.6 0.576316 0.3
v 0.6 0.65 0.15
v 0.6 0.525 0.3
v 0.6 0.65 0.15
v 0.6 -0.0375 0.15
v 0.6 0.525 0.3
v 0.6 -0.725 2.9
v 0.6 -0.75 3
v 0.6 -0.700877 2.9
v 0.6 0.65 0.15
v 0.6 0.75 -3
v 0.6 0.65 -2.6
v -0.6 0.75 3
v 0.6 0.75 3
v 0.6 -0.75 3
v 0.6 -0.75 3
v -0.6 -0.75 3
v -0.6 0.75 3
v 0.6 -0.75 -3
v -0.6 -0.75 -3
v -0.5 -0.75 -2.95
v 0.6 -0.75 -2.95
v 0.6 -0.75 -3
v -0.42 -0.75 -2.95
v 0.6 -0.75 -3
v -0.5 -0.75 -2.95
v -0.42 -0.75 -2.95
v 0.6 -0.75 0.3
v 0.6 -0.75 0.15
v 0.06 -0.75 0.3
v 0.58 -0.75 2.9
v 0.6 -0.75 3
v 0.6 -0.75 2.9
v 0.6 -0.75 0.15
v 0.03 -0.75 0.15
v 0.06 -0.75 0.3
v -0.5 -0.75 -2.95
v -0.6 -0.75 -3
v -0.5 -0.75 -2.743333
v -0.5 -0.75 -2.743333
v -0.6 -0.75 -3
v -0.5 -0.75 -2.5
v -0.6 -0.75 -3
v -0.6 -0.75 3
v -0.5 -0.75 0.15
v -0.442105 -0.75 0.3
v -0.5 -0.75 0.15
v -0.5 -0.75 0.3
v -0.5 -0.75 0.15
v -0.6 -0.75 3
v -0.5 -0.75 0.3
v -0.6 -0.75 3
v 0.6 -0.75 3
v -0.5 -0.75 2.9
v -0.5 -0.75 0.473334
v -0.5 -0.75 0.3
v -0.6 -0.75 3
v -0.6 -0.75 3
v -0.5 -0.75 2.9
v -0.5 -0.75 0.473334
v -0.5 -0.75 2.9
v 0.6 -0.75 3
v 0.561404 -0.75 2.9
v -0.5 -0.75 -2.5
v -0.6 -0.75 -3
v -0.5 -0.75 0.15
v -0.42 -0.75 0.3
v -0.5 -0.75 0.15
v -0.442105 -0.75 0.3
v 0.06 -0.75 0.3
v 0.03 -0.75 0.15
v -0.42 -0.75 0.3
v 0.561404 -0.75 2.9
v 0.6 -0.75 3
v 0.58 -0.75 2.9
v 0.03 -0.75 0.15
v -0.5 -0.75 0.15
v -0.42 -0.75 0.3
v -0.6 -0.75 -3
v -0.6 0.75 -3
v -0.6 0.75 3
v -0.6 0.75 3
v -0.6 -0.75 3
v -0.6 -0.75 -3
v 0.6 0.65 -2.95
v -0.5 -0.75 -2.95
v -0.5 0.65 -2.95
v -0.42 -0.75 -2.95
v -0.5 -0.75 -2.95
v 0.6 0.65 -2.95
v -0.42 -0.75 -2.95
v 0.6 0.65 -2.95
v 0.6 0.525 -2.95
v 0.6 -0.75 -2.95
v -0.42 -0.75 -2.95
v 0.6 0.525 -2.95
v 0.6 0.65 0.15
v 0.6 0.65 -2.6
v -0.5 0.65 0.15
v 0.6 0.65 -2.6
v 0.6 0.65 -2.691667
v -0.5 0.65 0.15
v 0.6 0.65 -2.691667
v 0.6 0.65 -2.95
v -0.5 0.65 0.15
v -0.5 0.65 0.15
v 0.6 0.65 -2.95
v -0.5 0.65 -2.95
v 0.6 -0.0375 0.15
v 0.6 0.65 0.15
v -0.5 0.65 0.15
v 0.6 -0.725 0.15
v 0.6 -0.0375 0.15
v -0.5 0.65 0.15
v 0.6 -0.75 0.15
v 0.6 -0.725 0.15
v -0.5 0.65 0.15
v -0.5 -0.75 0.15
v 0.03 -0.75 0.15
v -0.5 0.65 0.15
v -0.5 0.65 0.15
v 0.03 -0.75 0.15
v 0.6 -0.75 0.15
v -0.5 -0.75 -2.95
v -0.5 0.65 0.15
v -0.5 0.65 -2.95
v -0.5 -0.75 -2.95
v -0.5 -0.75 -2.743333
v -0.5 0.65 0.15
v -0.5 -0.75 -2.5
v -0.5 -0.75 0.15
v -0.5 0.65 0.15
v -0.5 -0.75 -2.743333
v -0.5 -0.75 -2.5
v -0.5 0.65 0.15
v 0.6 0.65 0.3
v 0.6 0.576316 0.3
v -0.5 0.65 0.3
v -0.5 -0.15 0.3
v -0.5 0.65 0.3
v -0.466917 -0.15 0.3
v -0.442105 -0.75 0.3
v -0.5 -0.75 0.3
v -0.5 -0.25 0.3
v -0.462782 -0.25 0.3
v -0.442105 -0.75 0.3
v -0.5 -0.25 0.3
v -0.466917 -0.15 0.3
v -0.5 0.65 0.3
v 0.029323 -0.15 0.3
v -0.049248 -0.25 0.3
v -0.442105 -0.75 0.3
v -0.462782 -0.25 0.3
v -0.5 0.65 0.3
v 0.6 0.576316 0.3
v 0.029323 -0.15 0.3
v 0.041429 -0.15 0.3
v 0.6 0.576316 0.3
v 0.6 0.525 0.3
v -0.02 -0.25 0.3
v -0.42 -0.75 0.3
v -0.035476 -0.25 0.3
v 0.041429 -0.15 0.3
v 0.6 0.525 0.3
v 0.06 -0.15 0.3
v 0.029323 -0.15 0.3
v 0.6 0.576316 0.3
v 0.041429 -0.15 0.3
v -0.42 -0.75 0.3
v -0.442105 -0.75 0.3
v -0.049248 -0.25 0.3
v -0.035476 -0.25 0.3
v -0.42 -0.75 0.3
v -0.049248 -0.25 0.3
v 0.06 -0.15 0.3
v 0.6 0.525 0.3
v 0.486667 -0.15 0.3
v 0.335555 -0.25 0.3
v -0.42 -0.75 0.3
v -0.02 -0.25 0.3
v 0.6 0.525 0.3
v 0.6 -0.075 0.3
v 0.486667 -0.15 0.3
v 0.54 -0.15 0.3
v 0.6 -0.075 0.3
v 0.6 -0.15 0.3
v 0.6 -0.726316 0.3
v 0.06 -0.75 0.3
v 0.46 -0.25 0.3
v 0.6 -0.25 0.3
v 0.6 -0.726316 0.3
v 0.46 -0.25 0.3
v 0.06 -0.75 0.3
v 0.6 -0.726316 0.3
v 0.6 -0.75 0.3
v 0.486667 -0.15 0.3
v 0.6 -0.075 0.3
v 0.54 -0.15 0.3
v 0.06 -0.75 0.3
v -0.42 -0.75 0.3
v 0.335555 -0.25 0.3
v 0.335555 -0.25 0.3
v 0.46 -0.25 0.3
v 0.06 -0.75 0.3
v 0.6 0.65 2.9
v 0.6 0.65 0.516667
v -0.5 0.65 2.9
v 0.6 0.65 0.516667
v 0.6 0.65 0.3
v -0.5 0.65 2.9
v -0.5 0.65 2.9
v 0.6 0.65 0.3
v -0.5 0.65 0.3
v 0.151429 -0.15 2.9
v -0.5 0.65 2.9
v 0.14 -0.15 2.9
v 0.6 -0.725 2.9
v 0.6 -0.700877 2.9
v 0.232857 -0.25 2.9
v 0.22 -0.25 2.9
v 0.6 -0.725 2.9
v 0.232857 -0.25 2.9
v 0.6 -0.15 2.9
v 0.6 0.65 2.9
v -0.5 0.65 2.9
v 0.232857 -0.25 2.9
v 0.6 -0.700877 2.9
v 0.6 -0.25 2.9
v 0.6 -0.15 2.9
v -0.5 0.65 2.9
v 0.151429 -0.15 2.9
v 0.14 -0.15 2.9
v -0.5 0.65 2.9
v 0.128571 -0.15 2.9
v 0.6 -0.75 2.9
v 0.6 -0.725 2.9
v 0.22 -0.25 2.9
v 0.207143 -0.25 2.9
v 0.6 -0.75 2.9
v 0.22 -0.25 2.9
v 0.194286 -0.25 2.9
v 0.58 -0.75 2.9
v 0.6 -0.75 2.9
v 0.128571 -0.15 2.9
v -0.5 0.65 2.9
v 0.117143 -0.15 2.9
v 0.207143 -0.25 2.9
v 0.194286 -0.25 2.9
v 0.6 -0.75 2.9
v -0.5 -0.25 2.9
v -0.5 -0.75 2.9
v 0.561404 -0.75 2.9
v 0.106516 -0.15 2.9
v -0.5 0.65 2.9
v -0.5 -0.15 2.9
v -0.5 -0.25 2.9
v 0.561404 -0.75 2.9
v 0.182331 -0.25 2.9
v 0.182331 -0.25 2.9
v 0.561404 -0.75 2.9
v 0.58 -0.75 2.9
v 0.117143 -0.15 2.9
v -0.5 0.65 2.9
v 0.106516 -0.15 2.9
v 0.194286 -0.25 2.9
v 0.182331 -0.25 2.9
v 0.58 -0.75 2.9
v -0.5 -0.25 0.3
v -0.5 -0.75 0.3
v -0.5 -0.25 1.228571
v -0.5 0.65 2.9
v -0.5 0.65 0.3
v -0.5 -0.15 0.3
v -0.5 -0.15 0.3
v -0.5 -0.15 1.414286
v -0.5 0.65 2.9
v -0.5 -0.15 1.513334
v -0.5 0.65 2.9
v -0.5 -0.15 1.414286
v -0.5 -0.75 0.3
v -0.5 -0.75 0.473334
v -0.5 -0.25 1.34
v -0.5 -0.25 1.34
v -0.5 -0.25 1.228571
v -0.5 -0.75 0.3
v -0.5 -0.15 2.9
v -0.5 0.65 2.9
v -0.5 -0.15 1.513334
v -0.5 -0.75 0.473334
v -0.5 -0.75 2.9
v -0.5 -0.25 2.9
v -0.5 -0.25 1.34
v -0.5 -0.75 0.473334
v -0.5 -0.25 2.9
v 0.6 -0.158333 0.3
v 0.7 -0.15 0.3
v 0.6 -0.15 0.3
v 0.6 -0.25 0.3
v 0.7 -0.25 0.3
v 0.7 -0.15 0.3
v 0.6 -0.25 0.3
v 0.7 -0.15 0.3
v 0.6 -0.158333 0.3
v 0.106516 -0.15 2.9
v -0.5 -0.15 2.9
v 0.7 -0.15 0.3
v 0.7 -0.15 0.3
v 0.117143 -0.15 2.9
v 0.106516 -0.15 2.9
v 0.7 -0.15 0.3
v 0.128571 -0.15 2.9
v 0.117143 -0.15 2.9
v 0.7 -0.15 0.3
v 0.14 -0.15 2.9
v 0.128571 -0.15 2.9
v 0.7 -0.15 0.3
v 0.151429 -0.15 2.9
v 0.14 -0.15 2.9
v 0.7 -0.15 0.3
v 0.6 -0.15 2.9
v 0.151429 -0.15 2.9
v 0.7 -0.15 0.3
v 0.7 -0.15 2.9
v 0.6 -0.15 2.9
v 0.6 -0.15 0.3
v 0.7 -0.15 0.3
v -0.5 -0.15 2.9
v 0.54 -0.15 0.3
v 0.6 -0.15 0.3
v -0.5 -0.15 2.9
v -0.5 -0.15 2.9
v 0.486667 -0.15 0.3
v 0.54 -0.15 0.3
v -0.5 -0.15 2.9
v 0.06 -0.15 0.3
v 0.486667 -0.15 0.3
v -0.5 -0.15 2.9
v 0.041429 -0.15 0.3
v 0.06 -0.15 0.3
v -0.5 -0.15 2.9
v 0.029323 -0.15 0.3
v 0.041429 -0.15 0.3
v -0.5 -0.15 2.9
v -0.466917 -0.15 0.3
v 0.029323 -0.15 0.3
v -0.5 -0.15 1.414286
v -0.5 -0.15 0.3
v -0.466917 -0.15 0.3
v -0.5 -0.15 1.513334
v -0.5 -0.15 1.414286
v -0.466917 -0.15 0.3
v -0.466917 -0.15 0.3
v -0.5 -0.15 2.9
v -0.5 -0.15 1.513334
v 0.7 -0.15 0.3
v 0.7 -0.25 0.3
v 0.7 -0.25 2.9
v 0.7 -0.25 2.9
v 0.7 -0.15 2.9
v 0.7 -0.15 0.3
v 0.6 -0.15 2.9
v 0.7 -0.15 2.9
v 0.7 -0.25 2.9
v 0.6 -0.15 2.9
v 0.7 -0.25 2.9
v 0.6 -0.241667 2.9
v 0.6 -0.241667 2.9
v 0.7 -0.25 2.9
v 0.6 -0.25 2.9
v -0.462782 -0.25 0.3
v -0.5 -0.25 0.3
v 0.7 -0.25 2.9
v -0.049248 -0.25 0.3
v -0.462782 -0.25 0.3
v 0.7 -0.25 2.9
v -0.035476 -0.25 0.3
v -0.049248 -0.25 0.3
v 0.7 -0.25 2.9
v -0.02 -0.25 0.3
v -0.035476 -0.25 0.3
v 0.7 -0.25 2.9
v 0.335555 -0.25 0.3
v -0.02 -0.25 0.3
v 0.7 -0.25 2.9
v 0.46 -0.25 0.3
v 0.335555 -0.25 0.3
v 0.7 -0.25 2.9
v 0.7 -0.25 2.9
v 0.6 -0.25 0.3
v 0.46 -0.25 0.3
v 0.7 -0.25 2.9
v 0.7 -0.25 0.3
v 0.6 -0.25 0.3
v 0.6 -0.25 2.9
v 0.7 -0.25 2.9
v -0.5 -0.25 0.3
v 0.232857 -0.25 2.9
v 0.6 -0.25 2.9
v -0.5 -0.25 0.3
v 0.22 -0.25 2.9
v 0.232857 -0.25 2.9
v -0.5 -0.25 0.3
v 0.207143 -0.25 2.9
v 0.22 -0.25 2.9
v -0.5 -0.25 0.3
v 0.194286 -0.25 2.9
v 0.207143 -0.25 2.9
v -0.5 -0.25 0.3
v 0.182331 -0.25 2.9
v 0.194286 -0.25 2.9
v -0.5 -0.25 0.3
v -0.5 -0.25 1.34
v -0.5 -0.25 2.9
v 0.182331 -0.25 2.9
v 0.182331 -0.25 2.9
v -0.5 -0.25 1.228571
v -0.5 -0.25 1.34
v 0.182331 -0.25 2.9
v -0.5 -0.25 0.3
v -0.5 -0.25 1.228571
vt 0 0
vt 0 1
vt 1 1
vt 1 1
vt 1 0
vt 0 0
vt 0 0
vt 0 1
vt 1 1
vt 1 1
vt 1 0
vt 0 0
vt 0 0
vt 0 1
vt 0.008331 0.06665
vt 0.008331 0.149902
vt 0 1
vt 0.008331 1
vt 0.008331 0.06665
vt 0 1
vt 0.008331 0.149902
vt 0.06665 0.06665
vt 0 0
vt 0.051727 0.066956
vt 0 0
vt 0.008331 0.06665
vt 0.051727 0.066956
vt 0.549805 0.983887
vt 0.524902 0.98291
vt 0.549805 1
vt 0.524902 0.98291
vt 0.524902 1
vt 0.549805 1
vt 0.549805 0.599609
vt 0.549805 0.549805
vt 0.524902 0.524902
vt 0.549805 0.605469
vt 0.549805 0.599609
vt 0.524902 0.524902
vt 0.549805 0.666504
vt 0.549805 0.605469
vt 0.524902 0.524902
vt 0.524902 0.524902
vt 0.549805 0.983887
vt 0.549805 0.666504
vt 0.98291 0.999023
vt 1 1
vt 0.98291 0.98291
vt 0.524902 0.524902
vt 0.524902 0.98291
vt 0.549805 0.983887
vt 1 0
vt 0.524902 0.06665
vt 0.549805 0.06665
vt 0.549805 0.06665
vt 0.524902 0.06665
vt 0.549805 0.115784
vt 1 1
vt 1 0
vt 0.98291 0.06665
vt 0.585938 0.06665
vt 0.98291 0.06665
vt 1 0
vt 1 0
vt 0.549805 0.06665
vt 0.585938 0.06665
vt 0.98291 0.666504
vt 0.98291 0.966797
vt 1 1
vt 1 1
vt 0.98291 0.660645
vt 0.98291 0.666504
vt 1 1
vt 0.98291 0.599609
vt 0.98291 0.660645
vt 1 1
vt 0.98291 0.06665
vt 0.98291 0.599609
vt 1 0
vt 0 0
vt 0.524902 0.06665
vt 0.549805 0.149902
vt 0.524902 0.524902
vt 0.549805 0.549805
vt 0.549805 0.115784
vt 0.524902 0.06665
vt 0.549805 0.149902
vt 0.524902 0.06665
vt 0.524902 0.524902
vt 0.549805 0.149902
vt 0.98291 0.98291
vt 1 1
vt 0.98291 0.966797
vt 0.524902 0.06665
vt 0 0
vt 0.06665 0.06665
vt 0 0
vt 0 1
vt 1 1
vt 1 1
vt 1 0
vt 0 0
vt 0 1
vt 1 1
vt 0.916504 0.991211
vt 0 0.991211
vt 0 1
vt 0.849609 0.991211
vt 0 1
vt 0.916504 0.991211
vt 0.849609 0.991211
vt 0 0.449951
vt 0 0.474854
vt 0.449951 0.449951
vt 0.016663 0.016663
vt 0 0
vt 0 0.016663
vt 0 0.474854
vt 0.474854 0.474854
vt 0.449951 0.449951
vt 0.916504 0.991211
vt 1 1
vt 0.916504 0.957031
vt 0.916504 0.957031
vt 1 1
vt 0.916504 0.916504
vt 1 1
vt 1 0
vt 0.916504 0.474854
vt 0.868164 0.449951
vt 0.916504 0.474854
vt 0.916504 0.449951
vt 0.916504 0.474854
vt 1 0
vt 0.916504 0.449951
vt 1 0
vt 0 0
vt 0.916504 0.016663
vt 0.916504 0.420898
vt 0.916504 0.449951
vt 1 0
vt 1 0
vt 0.916504 0.016663
vt 0.916504 0.420898
vt 0.916504 0.016663
vt 0 0
vt 0.032135 0.016663
vt 0.916504 0.916504
vt 1 1
vt 0.916504 0.474854
vt 0.849609 0.449951
vt 0.916504 0.474854
vt 0.868164 0.449951
vt 0.449951 0.449951
vt 0.474854 0.474854
vt 0.849609 0.449951
vt 0.032135 0.016663
vt 0 0
vt 0.016663 0.016663
vt 0.474854 0.474854
vt 0.916504 0.474854
vt 0.849609 0.449951
vt 0 0
vt 0 1
vt 1 1
vt 1 1
vt 1 0
vt 0 0
vt 0 0.083313
vt 0.933105 1
vt 0 1
vt 0.933105 0.933105
vt 0.933105 1
vt 0 0.083313
vt 0.933105 0.933105
vt 0 0.083313
vt 0.083313 0.083313
vt 0.933105 0.083313
vt 0.933105 0.933105
vt 0.083313 0.083313
vt 0.083313 1
vt 0.083313 0.112854
vt 1 1
vt 0.083313 0.112854
vt 0.083313 0.083313
vt 1 1
vt 0.083313 0.083313
vt 0.083313 0
vt 1 1
vt 1 1
vt 0.083313 0
vt 1 0
vt 0.458252 0.916504
vt 0 0.916504
vt 0 0
vt 0.916504 0.916504
vt 0.458252 0.916504
vt 0 0
vt 0.933105 0.916504
vt 0.916504 0.916504
vt 0 0
vt 0.933105 0
vt 0.933105 0.44165
vt 0 0
vt 0 0
vt 0.933105 0.44165
vt 0.933105 0.916504
vt 0 0.06665
vt 1 1
vt 0 1
vt 0 0.06665
vt 0.06665 0.06665
vt 1 1
vt 0.145142 0.06665
vt 1 0.06665
vt 1 1
vt 0.06665 0.06665
vt 0.145142 0.06665
vt 1 1
vt 0 0.083313
vt 0.049103 0.083313
vt 0 1
vt 0.533203 1
vt 0 1
vt 0.533203 0.972168
vt 0.933105 0.95166
vt 0.933105 1
vt 0.599609 1
vt 0.599609 0.96875
vt 0.933105 0.95166
vt 0.599609 1
vt 0.533203 0.972168
vt 0 1
vt 0.533203 0.558594
vt 0.599609 0.624023
vt 0.933105 0.95166
vt 0.599609 0.96875
vt 0 1
vt 0.049103 0.083313
vt 0.533203 0.558594
vt 0.533203 0.54834
vt 0.049103 0.083313
vt 0.083313 0.083313
vt 0.599609 0.599609
vt 0.933105 0.933105
vt 0.599609 0.612793
vt 0.533203 0.54834
vt 0.083313 0.083313
vt 0.533203 0.533203
vt 0.533203 0.558594
vt 0.049103 0.083313
vt 0.533203 0.54834
vt 0.933105 0.933105
vt 0.933105 0.95166
vt 0.599609 0.624023
vt 0.599609 0.612793
vt 0.933105 0.933105
vt 0.599609 0.624023
vt 0.533203 0.533203
vt 0.083313 0.083313
vt 0.533203 0.177734
vt 0.599609 0.303467
vt 0.933105 0.933105
vt 0.599609 0.599609
vt 0.083313 0.083313
vt 0.483154 0.083313
vt 0.533203 0.177734
vt 0.533203 0.133301
vt 0.483154 0.083313
vt 0.533203 0.083313
vt 0.91748 0.083313
vt 0.933105 0.533203
vt 0.599609 0.199951
vt 0.599609 0.083313
vt 0.91748 0.083313
vt 0.599609 0.199951
vt 0.933105 0.533203
vt 0.91748 0.083313
vt 0.933105 0.083313
vt 0.533203 0.177734
vt 0.483154 0.083313
vt 0.533203 0.133301
vt 0.933105 0.533203
vt 0.933105 0.933105
vt 0.599609 0.303467
vt 0.599609 0.303467
vt 0.599609 0.199951
vt 0.933105 0.533203
vt 0.083313 1
vt 0.083313 0.083313
vt 1 1
vt 0.083313 0.083313
vt 0.083313 0
vt 1 1
vt 1 1
vt 0.083313 0
vt 1 0
vt 0.533203 0.54248
vt 0 0
vt 0.533203 0.533203
vt 0.916504 0.916504
vt 0.900391 0.916504
vt 0.599609 0.610352
vt 0.599609 0.599609
vt 0.916504 0.916504
vt 0.599609 0.610352
vt 0.533203 0.916504
vt 0 0.916504
vt 0 0
vt 0.599609 0.610352
vt 0.900391 0.916504
vt 0.599609 0.916504
vt 0.533203 0.916504
vt 0 0
vt 0.533203 0.54248
vt 0.533203 0.533203
vt 0 0
vt 0.533203 0.523438
vt 0.933105 0.916504
vt 0.916504 0.916504
vt 0.599609 0.599609
vt 0.599609 0.588867
vt 0.933105 0.916504
vt 0.599609 0.599609
vt 0.599609 0.578125
vt 0.933105 0.899902
vt 0.933105 0.916504
vt 0.533203 0.523438
vt 0 0
vt 0.533203 0.51416
vt 0.599609 0.588867
vt 0.599609 0.578125
vt 0.933105 0.916504
vt 0.599609 0
vt 0.933105 0
vt 0.933105 0.884277
vt 0.533203 0.505371
vt 0 0
vt 0.533203 0
vt 0.599609 0
vt 0.933105 0.884277
vt 0.599609 0.568359
vt 0.599609 0.568359
vt 0.933105 0.884277
vt 0.933105 0.899902
vt 0.533203 0.51416
vt 0 0
vt 0.533203 0.505371
vt 0.599609 0.578125
vt 0.599609 0.568359
vt 0.933105 0.899902
vt 0 0.399902
vt 0 0.06665
vt 0.356934 0.399902
vt 1 1
vt 0 1
vt 0 0.466553
vt 0 0.466553
vt 0.428467 0.466553
vt 1 1
vt 0.466553 0.466553
vt 1 1
vt 0.428467 0.466553
vt 0 0.06665
vt 0.06665 0.06665
vt 0.399902 0.399902
vt 0.399902 0.399902
vt 0.356934 0.399902
vt 0 0.06665
vt 1 0.466553
vt 1 1
vt 0.466553 0.466553
vt 0.06665 0.06665
vt 1 0.06665
vt 1 0.399902
vt 0.399902 0.399902
vt 0.06665 0.06665
vt 1 0.399902
vt 0.083313 0.083313
vt 0 0
vt 0 0.083313
vt 1 0.083313
vt 1 0
vt 0 0
vt 1 0.083313
vt 0 0
vt 0.083313 0.083313
vt 0.494385 1
vt 1 1
vt 0 0
vt 0 0
vt 0.485596 1
vt 0.494385 1
vt 0 0
vt 0.476074 1
vt 0.485596 1
vt 0 0
vt 0.466553 1
vt 0.476074 1
vt 0 0
vt 0.457031 1
vt 0.466553 1
vt 0 0
vt 0.083313 1
vt 0.457031 1
vt 0 0
vt 0 1
vt 0.083313 1
vt 0.083313 0
vt 0 0
vt 1 1
vt 0.133301 0
vt 0.083313 0
vt 1 1
vt 1 1
vt 0.177734 0
vt 0.133301 0
vt 1 1
vt 0.533203 0
vt 0.177734 0
vt 1 1
vt 0.54834 0
vt 0.533203 0
vt 1 1
vt 0.558594 0
vt 0.54834 0
vt 1 1
vt 0.972168 0
vt 0.558594 0
vt 1 0.428467
vt 1 0
vt 0.972168 0
vt 1 0.466553
vt 1 0.428467
vt 0.972168 0
vt 0.972168 0
vt 1 1
vt 1 0.466553
vt 0 0
vt 0 1
vt 1 1
vt 1 1
vt 1 0
vt 0 0
vt 0 0.916504
vt 0 1
vt 1 1
vt 0 0.916504
vt 1 1
vt 0.916504 0.916504
vt 0.916504 0.916504
vt 1 1
vt 1 0.916504
vt 0.96875 1
vt 1 1
vt 0 0
vt 0.624023 1
vt 0.96875 1
vt 0 0
vt 0.612793 1
vt 0.624023 1
vt 0 0
vt 0.599609 1
vt 0.612793 1
vt 0 0
vt 0.303467 1
vt 0.599609 1
vt 0 0
vt 0.199951 1
vt 0.303467 1
vt 0 0
vt 0 0
vt 0.083313 1
vt 0.199951 1
vt 0 0
vt 0 1
vt 0.083313 1
vt 0.083313 0
vt 0 0
vt 1 1
vt 0.38916 0
vt 0.083313 0
vt 1 1
vt 0.399902 0
vt 0.38916 0
vt 1 1
vt 0.410645 0
vt 0.399902 0
vt 1 1
vt 0.421387 0
vt 0.410645 0
vt 1 1
vt 0.431152 0
vt 0.421387 0
vt 1 1
vt 1 0.599609
vt 1 0
vt 0.431152 0
vt 0.431152 0
vt 1 0.642578
vt 1 0.599609
vt 0.431152 0
vt 1 1
vt 1 0.642578
vn 0 0 -1
vn 0 0 -1
vn 0 0 -1
vn 0 0 -1
vn 0 0 -1
vn 0 0 -1
vn 0 1 0
vn 0 1 0
vn 0 1 0
vn 0 1 0
vn 0 1 0
vn 0 1 0
vn 1 0 0
vn 1 0 0
vn 1 0 0
vn 1 0 0
vn 1 0 0
vn 1 0 0
vn 1 0 0
vn 1 0 0
vn 1 0 0
vn 1 0 0
vn 1 0 0
vn 1 0 0
vn 1 0 0
vn 1 0 0
vn 1 0 0
vn 1 0 0
vn 1 0 0
vn 1 0 0
vn 1 0 0
vn 1 0 0
vn 1 0 0
vn 1 0 0
vn 1 0 0
vn 1 0 0
vn 1 0 0
vn 1 0 0
vn 1 0 0
vn 1 0 0
vn 1 0 0
vn 1 0 0
vn 1 0 0
vn 1 0 0
vn 1 0 0
vn 1 0 0
vn 1 0 0
vn 1 0 0
vn 1 0 0
vn 1 0 0
vn 1 0 0
vn 1 0 0
vn 1 0 0
vn 1 0 0
vn 1 0 0
vn 1 0 0
vn 1 0 0
vn 1 0 0
vn 1 0 0
vn 1 0 0
vn 1 0 0
vn 1 0 0
vn 1 0 0
vn 1 0 0
vn 1 0 0
vn 1 0 0
vn 1 0 0
vn 1 0 0
vn 1 0 0
vn 1 0 0
vn 1 0 0
vn 1 0 0
vn 1 0 0
vn 1 0 0
vn 1 0 0
vn 1 0 0
vn 1 0 0
vn 1 0 0
vn 1 0 0
vn 1 0 0
vn 1 0 0
vn 1 0 0
vn 1 0 0
vn 1 0 0
vn 1 0 0
vn 1 0 0
vn 1 0 0
vn 1 0 0
vn 1 0 0
vn 1 0 0
vn 1 0 0
vn 1 0 0
vn 1 0 0
vn 1 0 0
vn 1 0 0
vn 1 0 0
vn 0 0 1
vn 0 0 1
vn 0 0 1
vn 0 0 1
vn 0 0 1
vn 0 0 1
vn 0 -1 0
vn 0 -1 0
vn 0 -1 0
vn 0 -1 0
vn 0 -1 0
vn 0 -1 0
vn 0 -1 0
vn 0 -1 0
vn 0 -1 0
vn 0 -1 0
vn 0 -1 0
vn 0 -1 0
vn 0 -1 0
vn 0 -1 0
vn 0 -1 0
vn 0 -1 0
vn 0 -1 0
vn 0 -1 0
vn 0 -1 0
vn 0 -1 0
vn 0 -1 0
vn 0 -1 0
vn 0 -1 0
vn 0 -1 0
vn 0 -1 0
vn 0 -1 0
vn 0 -1 0
vn 0 -1 0
vn 0 -1 0
vn 0 -1 0
vn 0 -1 0
vn 0 -1 0
vn 0 -1 0
vn 0 -1 0
vn 0 -1 0
vn 0 -1 0
vn 0 -1 0
vn 0 -1 0
vn 0 -1 0
vn 0 -1 0
vn 0 -1 0
vn 0 -1 0
vn 0 -1 0
vn 0 -1 0
vn 0 -1 0
vn 0 -1 0
vn 0 -1 0
vn 0 -1 0
vn 0 -1 0
vn 0 -1 0
vn 0 -1 0
vn 0 -1 0
vn 0 -1 0
vn 0 -1 0
vn 0 -1 0
vn 0 -1 0
vn 0 -1 0
vn 0 -1 0
vn 0 -1 0
vn 0 -1 0
vn -1 0 0
vn -1 0 0
vn -1 0 0
vn -1 0 0
vn -1 0 0
vn -1 0 0
vn 0 0 1
vn 0 0 1
vn 0 0 1
vn 0 0 1
vn 0 0 1
vn 0 0 1
vn 0 0 1
vn 0 0 1
vn 0 0 1
vn 0 0 1
vn 0 0 1
vn 0 0 1
vn 0 -1 0
vn 0 -1 0
vn 0 -1 0
vn 0 -1 0
vn 0 -1 0
vn 0 -1 0
vn 0 -1 0
vn 0 -1 0
vn 0 -1 0
vn 0 -1 0
vn 0 -1 0
vn 0 -1 0
vn 0 0 -1
vn 0 0 -1
vn 0 0 -1
vn 0 0 -1
vn 0 0 -1
vn 0 0 -1
vn 0 0 -1
vn 0 0 -1
vn 0 0 -1
vn 0 0 -1
vn 0 0 -1
vn 0 0 -1
vn 0 0 -1
vn 0 0 -1
vn 0 0 -1
vn 1 0 0
vn 1 0 0
vn 1 0 0
vn 1 0 0
vn 1 0 0
vn 1 0 0
vn 1 0 0
vn 1 0 0
vn 1 0 0
vn 1 0 0
vn 1 0 0
vn 1 0 0
vn 0 0 1
vn 0 0 1
vn 0 0 1
vn 0 0 1
vn 0 0 1
vn 0 0 1
vn 0 0 1
vn 0 0 1
vn 0 0 1
vn 0 0 1
vn 0 0 1
vn 0 0 1
vn 0 0 1
vn 0 0 1
vn 0 0 1
vn 0 0 1
vn 0 0 1
vn 0 0 1
vn 0 0 1
vn 0 0 1
vn 0 0 1
vn 0 0 1
vn 0 0 1
vn 0 0 1
vn 0 0 1
vn 0 0 1
vn 0 0 1
vn 0 0 1
vn 0 0 1
vn 0 0 1
vn 0 0 1
vn 0 0 1
vn 0 0 1
vn 0 0 1
vn 0 0 1
vn 0 0 1
vn 0 0 1
vn 0 0 1
vn 0 0 1
vn 0 0 1
vn 0 0 1
vn 0 0 1
vn 0 0 1
vn 0 0 1
vn 0 0 1
vn 0 0 1
vn 0 0 1
vn 0 0 1
vn 0 0 1
vn 0 0 1
vn 0 0 1
vn 0 0 1
vn 0 0 1
vn 0 0 1
vn 0 0 1
vn 0 0 1
vn 0 0 1
vn 0 0 1
vn 0 0 1
vn 0 0 1
vn 0 0 1
vn 0 0 1
vn 0 0 1
vn 0 0 1
vn 0 0 1
vn 0 0 1
vn 0 0 1
vn 0 0 1
vn 0 0 1
vn 0 -1 0
vn 0 -1 0
vn 0 -1 0
vn 0 -1 0
vn 0 -1 0
vn 0 -1 0
vn 0 -1 0
vn 0 -1 0
vn 0 -1 0
vn 0 0 -1
vn 0 0 -1
vn 0 0 -1
vn 0 0 -1
vn 0 0 -1
vn 0 0 -1
vn 0 0 -1
vn 0 0 -1
vn 0 0 -1
vn 0 0 -1
vn 0 0 -1
vn 0 0 -1
vn 0 0 -1
vn 0 0 -1
vn 0 0 -1
vn 0 0 -1
vn 0 0 -1
vn 0 0 -1
vn 0 0 -1
vn 0 0 -1
vn 0 0 -1
vn 0 0 -1
vn 0 0 -1
vn 0 0 -1
vn 0 0 -1
vn 0 0 -1
vn 0 0 -1
vn 0 0 -1
vn 0 0 -1
vn 0 0 -1
vn 0 0 -1
vn 0 0 -1
vn 0 0 -1
vn 0 0 -1
vn 0 0 -1
vn 0 0 -1
vn 0 0 -1
vn 0 0 -1
vn 0 0 -1
vn 0 0 -1
vn 0 0 -1
vn 0 0 -1
vn 0 0 -1
vn 0 0 -1
vn 0 0 -1
vn 0 0 -1
vn 0 0 -1
vn 0 0 -1
vn 0 0 -1
vn 0 0 -1
vn 0 0 -1
vn 0 0 -1
vn 0 0 -1
vn 0 0 -1
vn 1 0 0
vn 1 0 0
vn 1 0 0
vn 1 0 0
vn 1 0 0
vn 1 0 0
vn 1 0 0
vn 1 0 0
vn 1 0 0
vn 1 0 0
vn 1 0 0
vn 1 0 0
vn 1 0 0
vn 1 0 0
vn 1 0 0
vn 1 0 0
vn 1 0 0
vn 1 0 0
vn 1 0 0
vn 1 0 0
vn 1 0 0
vn 1 0 0
vn 1 0 0
vn 1 0 0
vn 1 0 0
vn 1 0 0
vn 1 0 0
vn 0 0 -1
vn 0 0 -1
vn 0 0 -1
vn 0 0 -1
vn 0 0 -1
vn 0 0 -1
vn 0 0 -1
vn 0 0 -1
vn 0 0 -1
vn 0 1 0
vn 0 1 0
vn 0 1 0
vn 0 1 0
vn 0 1 0
vn 0 1 0
vn 0 1 0
vn 0 1 0
vn 0 1 0
vn 0 1 0
vn 0 1 0
vn 0 1 0
vn 0 1 0
vn 0 1 0
vn 0 1 0
vn 0 1 0
vn 0 1 0
vn 0 1 0
vn 0 1 0
vn 0 1 0
vn 0 1 0
vn 0 1 0
vn 0 1 0
vn 0 1 0
vn 0 1 0
vn 0 1 0
vn 0 1 0
vn 0 1 0
vn 0 1 0
vn 0 1 0
vn 0 1 0
vn 0 1 0
vn 0 1 0
vn 0 1 0
vn 0 1 0
vn 0 1 0
vn 0 1 0
vn 0 1 0
vn 0 1 0
vn 0 1 0
vn 0 1 0
vn 0 1 0
vn 0 1 0
vn 0 1 0
vn 0 1 0
vn 0 1 0
vn 0 1 0
vn 0 1 0
vn 0 1 0
vn 0 1 0
vn 0 1 0
vn 1 0 0
vn 1 0 0
vn 1 0 0
vn 1 0 0
vn 1 0 0
vn 1 0 0
vn 0 0 1
vn 0 0 1
vn 0 0 1
vn 0 0 1
vn 0 0 1
vn 0 0 1
vn 0 0 1
vn 0 0 1
vn 0 0 1
vn 0 -1 0
vn 0 -1 0
vn 0 -1 0
vn 0 -1 0
vn 0 -1 0
vn 0 -1 0
vn 0 -1 0
vn 0 -1 0
vn 0 -1 0
vn 0 -1 0
vn 0 -1 0
vn 0 -1 0
vn 0 -1 0
vn 0 -1 0
vn 0 -1 0
vn 0 -1 0
vn 0 -1 0
vn 0 -1 0
vn 0 -1 0
vn 0 -1 0
vn 0 -1 0
vn 0 -1 0
vn 0 -1 0
vn 0 -1 0
vn 0 -1 0
vn 0 -1 0
vn 0 -1 0
vn 0 -1 0
vn 0 -1 0
vn 0 -1 0
vn 0 -1 0
vn 0 -1 0
vn 0 -1 0
vn 0 -1 0
vn 0 -1 0
vn 0 -1 0
vn 0 -1 0
vn 0 -1 0
vn 0 -1 0
vn 0 -1 0
vn 0 -1 0
vn 0 -1 0
vn 0 -1 0
vn 0 -1 0
vn 0 -1 0
vn 0 -1 0
vn 0 -1 0
vn 0 -1 0
vn 0 -1 0
vn 0 -1 0
vn 0 -1 0
g surface0
usemtl [SpatialMaterial:31156]
f 3/3/3 2/2/2 1/1/1
f 6/6/6 5/5/5 4/4/4
f 9/9/9 8/8/8 7/7/7
f 12/12/12 11/11/11 10/10/10
f 15/15/15 14/14/14 13/13/13
f 18/18/18 17/17/17 16/16/16
f 21/21/21 20/20/20 19/19/19
f 24/24/24 23/23/23 22/22/22
f 27/27/27 26/26/26 25/25/25
f 30/30/30 29/29/29 28/28/28
f 33/33/33 32/32/32 31/31/31
f 36/36/36 35/35/35 34/34/34
f 39/39/39 38/38/38 37/37/37
f 42/42/42 41/41/41 40/40/40
f 45/45/45 44/44/44 43/43/43
f 48/48/48 47/47/47 46/46/46
f 51/51/51 50/50/50 49/49/49
f 54/54/54 53/53/53 52/52/52
f 57/57/57 56/56/56 55/55/55
f 60/60/60 59/59/59 58/58/58
f 63/63/63 62/62/62 61/61/61
f 66/66/66 65/65/65 64/64/64
f 69/69/69 68/68/68 67/67/67
f 72/72/72 71/71/71 70/70/70
f 75/75/75 74/74/74 73/73/73
f 78/78/78 77/77/77 76/76/76
f 81/81/81 80/80/80 79/79/79
f 84/84/84 83/83/83 82/82/82
f 87/87/87 86/86/86 85/85/85
f 90/90/90 89/89/89 88/88/88
f 93/93/93 92/92/92 91/91/91
f 96/96/96 95/95/95 94/94/94
f 99/99/99 98/98/98 97/97/97
f 102/102/102 101/101/101 100/100/100
f 105/105/105 104/104/104 103/103/103
f 108/108/108 107/107/107 106/106/106
f 111/111/111 110/110/110 109/109/109
f 114/114/114 113/113/113 112/112/112
f 117/117/117 116/116/116 115/115/115
f 120/120/120 119/119/119 118/118/118
f 123/123/123 122/122/122 121/121/121
f 126/126/126 125/125/125 124/124/124
f 129/129/129 128/128/128 127/127/127
f 132/132/132 131/131/131 130/130/130
f 135/135/135 134/134/134 133/133/133
f 138/138/138 137/137/137 136/136/136
f 141/141/141 140/140/140 139/139/139
f 144/144/144 143/143/143 142/142/142
f 147/147/147 146/146/146 145/145/145
f 150/150/150 149/149/149 148/148/148
f 153/153/153 152/152/152 151/151/151
f 156/156/156 155/155/155 154/154/154
f 159/159/159 158/158/158 157/157/157
f 162/162/162 161/161/161 160/160/160
f 165/165/165 164/164/164 163/163/163
f 168/168/168 167/167/167 166/166/166
f 171/171/171 170/170/170 169/169/169
f 174/174/174 173/173/173 172/172/172
f 177/177/177 176/176/176 175/175/175
f 180/180/180 179/179/179 178/178/178
f 183/183/183 182/182/182 181/181/181
f 186/186/186 185/185/185 184/184/184
f 189/189/189 188/188/188 187/187/187
f 192/192/192 191/191/191 190/190/190
f 195/195/195 194/194/194 193/193/193
f 198/198/198 197/197/197 196/196/196
f 201/201/201 200/200/200 199/199/199
f 204/204/204 203/203/203 202/202/202
f 207/207/207 206/206/206 205/205/205
f 210/210/210 209/209/209 208/208/208
f 213/213/213 212/212/212 211/211/211
f 216/216/216 215/215/215 214/214/214
f 219/219/219 218/218/218 217/217/217
f 222/222/222 221/221/221 220/220/220
f 225/225/225 224/224/224 223/223/223
f 228/228/228 227/227/227 226/226/226
f 231/231/231 230/230/230 229/229/229
f 234/234/234 233/233/233 232/232/232
f 237/237/237 236/236/236 235/235/235
f 240/240/240 239/239/239 238/238/238
f 243/243/243 242/242/242 241/241/241
f 246/246/246 245/245/245 244/244/244
f 249/249/249 248/248/248 247/247/247
f 252/252/252 251/251/251 250/250/250
f 255/255/255 254/254/254 253/253/253
f 258/258/258 257/257/257 256/256/256
f 261/261/261 260/260/260 259/259/259
f 264/264/264 263/263/263 262/262/262
f 267/267/267 266/266/266 265/265/265
f 270/270/270 269/269/269 268/268/268
f 273/273/273 272/272/272 271/271/271
f 276/276/276 275/275/275 274/274/274
f 279/279/279 278/278/278 277/277/277
f 282/282/282 281/281/281 280/280/280
f 285/285/285 284/284/284 283/283/283
f 288/288/288 287/287/287 286/286/286
f 291/291/291 290/290/290 289/289/289
f 294/294/294 293/293/293 292/292/292
f 297/297/297 296/296/296 295/295/295
f 300/300/300 299/299/299 298/298/298
f 303/303/303 302/302/302 301/301/301
f 306/306/306 305/305/305 304/304/304
f 309/309/309 308/308/308 307/307/307
f 312/312/312 311/311/311 310/310/310
f 315/315/315 314/314/314 313/313/313
f 318/318/318 317/317/317 316/316/316
f 321/321/321 320/320/320 319/319/319
f 324/324/324 323/323/323 322/322/322
f 327/327/327 326/326/326 325/325/325
f 330/330/330 329/329/329 328/328/328
f 333/333/333 332/332/332 331/331/331
f 336/336/336 335/335/335 334/334/334
f 339/339/339 338/338/338 337/337/337
f 342/342/342 341/341/341 340/340/340
f 345/345/345 344/344/344 343/343/343
f 348/348/348 347/347/347 346/346/346
f 351/351/351 350/350/350 349/349/349
f 354/354/354 353/353/353 352/352/352
f 357/357/357 356/356/356 355/355/355
f 360/360/360 359/359/359 358/358/358
f 363/363/363 362/362/362 361/361/361
f 366/366/366 365/365/365 364/364/364
f 369/369/369 368/368/368 367/367/367
f 372/372/372 371/371/371 370/370/370
f 375/375/375 374/374/374 373/373/373
f 378/378/378 377/377/377 376/376/376
f 381/381/381 380/380/380 379/379/379
f 384/384/384 383/383/383 382/382/382
f 387/387/387 386/386/386 385/385/385
f 390/390/390 389/389/389 388/388/388
f 393/393/393 392/392/392 391/391/391
f 396/396/396 395/395/395 394/394/394
f 399/399/399 398/398/398 397/397/397
f 402/402/402 401/401/401 400/400/400
f 405/405/405 404/404/404 403/403/403
f 408/408/408 407/407/407 406/406/406
f 411/411/411 410/410/410 409/409/409
f 414/414/414 413/413/413 412/412/412
f 417/417/417 416/416/416 415/415/415
f 420/420/420 419/419/419 418/418/418
f 423/423/423 422/422/422 421/421/421
f 426/426/426 425/425/425 424/424/424
f 429/429/429 428/428/428 427/427/427
f 432/432/432 431/431/431 430/430/430
f 435/435/435 434/434/434 433/433/433
f 438/438/438 437/437/437 436/436/436
f 441/441/441 440/440/440 439/439/439
f 444/444/444 443/443/443 442/442/442
f 447/447/447 446/446/446 445/445/445
f 450/450/450 449/449/449 448/448/448
f 453/453/453 452/452/452 451/451/451
f 456/456/456 455/455/455 454/454/454
f 459/459/459 458/458/458 457/457/457
f 462/462/462 461/461/461 460/460/460
f 465/465/465 464/464/464 463/463/463
f 468/468/468 467/467/467 466/466/466
f 471/471/471 470/470/470 469/469/469
f 474/474/474 473/473/473 472/472/472
f 477/477/477 476/476/476 475/475/475
f 480/480/480 479/479/479 478/478/478
f 483/483/483 482/482/482 481/481/481
f 486/486/486 485/485/485 484/484/484
f 489/489/489 488/488/488 487/487/487
f 492/492/492 491/491/491 490/490/490
f 495/495/495 494/494/494 493/493/493
f 498/498/498 497/497/497 496/496/496
f 501/501/501 500/500/500 499/499/499
f 504/504/504 503/503/503 502/502/502
