mtllib wall_Shelf.mtl
o wall_Shelf
v 2 2.1 0.4
v 2 2.1 -0.4
v 2 1.9 -0.4
v 2 1.9 -0.4
v 2 1.9 0.4
v 2 2.1 0.4
v 2 2.1 0.4
v -2 2.1 0.4
v -2 2.1 -0.4
v -2 2.1 -0.4
v 2 2.1 -0.4
v 2 2.1 0.4
v 2 2.1 0.4
v 2 1.9 0.4
v -2 1.9 0.4
v -2 1.9 0.4
v -2 2.1 0.4
v 2 2.1 0.4
v -2 2.1 -0.4
v -2 2.1 0.4
v -2 1.9 0.4
v -2 1.9 0.4
v -2 1.9 -0.4
v -2 2.1 -0.4
v 1.97995 1.9 0.066599
v 1.97995 1.9 0.075024
v 1.97995 1.9 0.080722
v 1.97995 1.9 0.075024
v 1.97995 1.9 0.080722
v 2 1.9 0.4
v 2 1.9 0.4
v 2 1.9 -0.4
v 1.97995 1.9 0.075024
v 2 1.9 -0.4
v 1.97995 1.9 0.066599
v 1.97995 1.9 0.080722
v 1.97995 1.9 0.066599
v 2 1.9 -0.4
v 1.97995 1.9 -0.03985
v 1.97995 1.9 0.080722
v 1.97995 1.9 0.075024
v 1.97995 1.9 0.200834
v 1.97995 1.9 0.200834
v 2 1.9 0.4
v 1.97995 1.9 0.080722
v 1.956833 1.9 0.241343
v -2 1.9 0.4
v 2 1.9 0.4
v 2 1.9 0.4
v 1.97995 1.9 0.241343
v 1.956833 1.9 0.241343
v 1.97995 1.9 0.241343
v 2 1.9 0.4
v 1.97995 1.9 0.200834
v 1.97995 1.9 0.200834
v 1.97995 1.9 0.236726
v 1.97995 1.9 0.241343
v 1.77995 1.9 0.241343
v -2 1.9 0.4
v 1.956833 1.9 0.241343
v 1.77995 1.9 0.134868
v -2 1.9 0.4
v 1.77995 1.9 0.241343
v 1.77995 1.9 0.134868
v 1.77995 1.9 0.033696
v -2 1.9 0.4
v -2 1.9 0.4
v 1.77995 1.9 0.033696
v 1.77995 1.9 0.013698
v 2 1.9 -0.4
v -2 1.9 0.4
v 1.77995 1.9 -0.039851
v 1.969877 1.9 -0.03985
v 1.97995 1.9 -0.03985
v 2 1.9 -0.4
v 1.842599 1.9 -0.03985
v 1.969877 1.9 -0.03985
v 2 1.9 -0.4
v 1.841415 1.9 -0.03985
v 1.842599 1.9 -0.03985
v 2 1.9 -0.4
v 2 1.9 -0.4
v 1.82645 1.9 -0.039851
v 1.841415 1.9 -0.03985
v 2 1.9 -0.4
v 1.77995 1.9 -0.039851
v 1.82645 1.9 -0.039851
v -2 1.9 0.4
v 1.77995 1.9 0.013698
v 1.77995 1.9 0.007481
v 1.77995 1.9 -0.039851
v -2 1.9 0.4
v 1.77995 1.9 0.007481
v 1.841415 1.9 -0.03985
v 1.842599 1.9 -0.03985
v 1.82645 1.9 -0.039851
v 1.969877 1.9 -0.03985
v 1.842599 1.9 -0.03985
v 1.841415 1.9 -0.03985
v -1.78 1.9 0.074875
v 2 1.9 -0.4
v -1.78 1.9 0.066443
v 2 1.9 -0.4
v -2 1.9 -0.4
v -1.78 1.9 -0.039971
v -1.78 1.9 0.066443
v 2 1.9 -0.4
v -1.78 1.9 -0.039971
v -1.78 1.9 0.080577
v -1.78 1.9 0.200653
v 2 1.9 -0.4
v 2 1.9 -0.4
v -1.78 1.9 0.074875
v -1.78 1.9 0.080577
v -2 1.9 0.4
v 2 1.9 -0.4
v -1.78 1.9 0.241223
v -1.78 1.9 0.236598
v -1.78 1.9 0.241223
v 2 1.9 -0.4
v 2 1.9 -0.4
v -1.78 1.9 0.200653
v -1.78 1.9 0.236598
v -1.78 1.9 0.241223
v -1.803152 1.9 0.241223
v -2 1.9 0.4
v -2 1.9 -0.4
v -2 1.9 0.4
v -1.98 1.9 0.241223
v -1.98 1.9 0.241223
v -2 1.9 0.4
v -1.803152 1.9 0.241223
v -2 1.9 -0.4
v -1.98 1.9 0.241223
v -1.98 1.9 0.134768
v -1.98 1.9 0.0074
v -2 1.9 -0.4
v -1.98 1.9 0.134768
v -1.98 1.9 0.134768
v -1.98 1.9 0.013621
v -1.98 1.9 0.0074
v -1.98 1.9 0.134768
v -1.98 1.9 0.033615
v -1.98 1.9 0.013621
v -1.98 1.9 0.0074
v -1.98 1.9 0.013621
v -1.98 1.9 -0.039971
v -1.98 1.9 -0.039971
v -2 1.9 -0.4
v -1.98 1.9 0.0074
v -1.78 1.9 -0.039971
v -2 1.9 -0.4
v -1.790081 1.9 -0.039971
v -1.918502 1.9 -0.039971
v -1.917316 1.9 -0.039971
v -2 1.9 -0.4
v -2 1.9 -0.4
v -1.933462 1.9 -0.039971
v -1.918502 1.9 -0.039971
v -2 1.9 -0.4
v -1.98 1.9 -0.039971
v -1.933462 1.9 -0.039971
v -1.917316 1.9 -0.039971
v -1.790081 1.9 -0.039971
v -2 1.9 -0.4
v 2 1.9 -0.4
v 2 2.1 -0.4
v -2 2.1 -0.4
v -2 2.1 -0.4
v -2 1.9 -0.4
v 2 1.9 -0.4
v 1.97995 1.9 0.066599
v 1.97995 1.535589 -0.4
v 1.97995 1.9 0.075024
v 1.97995 1.535589 -0.4
v 1.97995 1.511745 -0.4
v 1.97995 1.9 0.075024
v 1.97995 1.9 -0.03985
v 1.97995 1.535589 -0.4
v 1.97995 1.9 0.066599
v 1.97995 1.9 0.080722
v 1.97995 1.494319 -0.4
v 1.97995 1.9 0.200834
v 1.97995 1.9 0.075024
v 1.97995 1.511745 -0.4
v 1.97995 1.9 0.080722
v 1.97995 1.511745 -0.4
v 1.97995 1.494319 -0.4
v 1.97995 1.9 0.080722
v 1.97995 1.9 0.236726
v 1.97995 1.290385 -0.4
v 1.97995 1.9 0.241343
v 1.97995 1.290385 -0.4
v 1.97995 1.270958 -0.380342
v 1.97995 1.9 0.241343
v 1.97995 1.9 0.200834
v 1.97995 1.494319 -0.4
v 1.97995 1.9 0.236726
v 1.97995 1.494319 -0.4
v 1.97995 1.290385 -0.4
v 1.97995 1.9 0.236726
v 1.97995 1.9 0.241343
v 1.97995 1.270958 -0.380342
v 1.77995 1.270958 -0.380342
v 1.97995 1.9 0.241343
v 1.77995 1.270958 -0.380342
v 1.956833 1.9 0.241343
v 1.956833 1.9 0.241343
v 1.77995 1.270958 -0.380342
v 1.77995 1.9 0.241343
v 1.77995 1.9 0.241343
v 1.77995 1.270958 -0.380342
v 1.77995 1.9 0.134868
v 1.77995 1.9 0.134868
v 1.77995 1.270958 -0.380342
v 1.77995 1.9 0.033696
v 1.77995 1.9 0.033696
v 1.77995 1.270958 -0.380342
v 1.77995 1.9 0.013698
v 1.77995 1.9 0.007481
v 1.77995 1.290385 -0.4
v 1.77995 1.9 -0.039851
v 1.77995 1.290385 -0.4
v 1.77995 1.535589 -0.4
v 1.77995 1.9 -0.039851
v 1.77995 1.9 0.013698
v 1.77995 1.270958 -0.380342
v 1.77995 1.290385 -0.4
v 1.77995 1.9 0.013698
v 1.77995 1.290385 -0.4
v 1.77995 1.9 0.007481
v 1.807588 1.290386 -0.4
v 1.77995 1.270958 -0.380342
v 1.97995 1.290385 -0.4
v 1.77995 1.270958 -0.380342
v 1.97995 1.270958 -0.380342
v 1.97995 1.290385 -0.4
v 1.77995 1.290385 -0.4
v 1.77995 1.270958 -0.380342
v 1.807588 1.290386 -0.4
v 1.969877 1.9 -0.03985
v 1.94507 1.535589 -0.4
v 1.97995 1.9 -0.03985
v 1.94507 1.535589 -0.4
v 1.97995 1.535589 -0.4
v 1.97995 1.9 -0.03985
v 1.842599 1.9 -0.03985
v 1.94507 1.535589 -0.4
v 1.969877 1.9 -0.03985
v 1.77995 1.9 -0.039851
v 1.77995 1.535589 -0.4
v 1.82645 1.9 -0.039851
v 1.77995 1.535589 -0.4
v 1.940968 1.535589 -0.4
v 1.82645 1.9 -0.039851
v 1.841415 1.9 -0.03985
v 1.940968 1.535589 -0.4
v 1.842599 1.9 -0.03985
v 1.940968 1.535589 -0.4
v 1.94507 1.535589 -0.4
v 1.842599 1.9 -0.03985
v 1.82645 1.9 -0.039851
v 1.940968 1.535589 -0.4
v 1.841415 1.9 -0.03985
v 1.97995 1.535589 -0.4
v 1.97995 1.511745 -0.4
v 1.97995 1.494319 -0.4
v 1.97995 1.535589 -0.4
v 1.97995 1.511745 -0.4
v 1.97995 1.494319 -0.4
v 1.97995 1.290385 -0.4
v 1.97995 1.494319 -0.4
v 1.77995 1.535589 -0.4
v 1.807588 1.290386 -0.4
v 1.97995 1.290385 -0.4
v 1.77995 1.535589 -0.4
v 1.77995 1.535589 -0.4
v 1.77995 1.290385 -0.4
v 1.807588 1.290386 -0.4
v 1.97995 1.511745 -0.4
v 1.97995 1.535589 -0.4
v 1.94507 1.535589 -0.4
v 1.97995 1.511745 -0.4
v 1.94507 1.535589 -0.4
v 1.940968 1.535589 -0.4
v 1.940968 1.535589 -0.4
v 1.97995 1.494319 -0.4
v 1.97995 1.511745 -0.4
v 1.940968 1.535589 -0.4
v 1.77995 1.535589 -0.4
v 1.97995 1.494319 -0.4
v -1.78 1.9 0.066443
v -1.78 1.535711 -0.4
v -1.78 1.9 0.074875
v -1.78 1.535711 -0.4
v -1.78 1.511867 -0.4
v -1.78 1.9 0.074875
v -1.78 1.9 -0.039971
v -1.78 1.535711 -0.4
v -1.78 1.9 0.066443
v -1.78 1.9 0.080577
v -1.78 1.494441 -0.4
v -1.78 1.9 0.200653
v -1.78 1.9 0.074875
v -1.78 1.511867 -0.4
v -1.78 1.9 0.080577
v -1.78 1.511867 -0.4
v -1.78 1.494441 -0.4
v -1.78 1.9 0.080577
v -1.78 1.9 0.236598
v -1.78 1.290507 -0.4
v -1.78 1.9 0.241223
v -1.78 1.290507 -0.4
v -1.78 1.27108 -0.380342
v -1.78 1.9 0.241223
v -1.78 1.9 0.200653
v -1.78 1.494441 -0.4
v -1.78 1.9 0.236598
v -1.78 1.494441 -0.4
v -1.78 1.290507 -0.4
v -1.78 1.9 0.236598
v -1.78 1.9 0.241223
v -1.78 1.27108 -0.380342
v -1.98 1.27108 -0.380342
v -1.78 1.9 0.241223
v -1.98 1.27108 -0.380342
v -1.803152 1.9 0.241223
v -1.803152 1.9 0.241223
v -1.98 1.27108 -0.380342
v -1.98 1.9 0.241223
v -1.98 1.9 0.241223
v -1.98 1.27108 -0.380342
v -1.98 1.9 0.134768
v -1.98 1.9 0.134768
v -1.98 1.27108 -0.380342
v -1.98 1.9 0.033615
v -1.98 1.9 0.033615
v -1.98 1.27108 -0.380342
v -1.98 1.9 0.013621
v -1.98 1.9 0.0074
v -1.98 1.290507 -0.4
v -1.98 1.9 -0.039971
v -1.98 1.290507 -0.4
v -1.98 1.535711 -0.4
v -1.98 1.9 -0.039971
v -1.98 1.9 0.013621
v -1.98 1.27108 -0.380342
v -1.98 1.290507 -0.4
v -1.98 1.9 0.013621
v -1.98 1.290507 -0.4
v -1.98 1.9 0.0074
v -1.952362 1.290507 -0.4
v -1.98 1.27108 -0.380342
v -1.78 1.290507 -0.4
v -1.98 1.27108 -0.380342
v -1.78 1.27108 -0.380342
v -1.78 1.290507 -0.4
v -1.98 1.290507 -0.4
v -1.98 1.27108 -0.380342
v -1.952362 1.290507 -0.4
v -1.790081 1.9 -0.039971
v -1.81488 1.535711 -0.4
v -1.78 1.9 -0.039971
v -1.81488 1.535711 -0.4
v -1.78 1.535711 -0.4
v -1.78 1.9 -0.039971
v -1.917316 1.9 -0.039971
v -1.81488 1.535711 -0.4
v -1.790081 1.9 -0.039971
v -1.98 1.9 -0.039971
v -1.98 1.535711 -0.4
v -1.933462 1.9 -0.039971
v -1.98 1.535711 -0.4
v -1.818982 1.535711 -0.4
v -1.933462 1.9 -0.039971
v -1.918502 1.9 -0.039971
v -1.818982 1.535711 -0.4
v -1.917316 1.9 -0.039971
v -1.818982 1.535711 -0.4
v -1.81488 1.535711 -0.4
v -1.917316 1.9 -0.039971
v -1.933462 1.9 -0.039971
v -1.818982 1.535711 -0.4
v -1.918502 1.9 -0.039971
v -1.818982 1.535711 -0.4
v -1.98 1.535711 -0.4
v -1.98 1.290507 -0.4
v -1.98 1.290507 -0.4
v -1.81488 1.535711 -0.4
v -1.818982 1.535711 -0.4
v -1.98 1.290507 -0.4
v -1.78 1.535711 -0.4
v -1.81488 1.535711 -0.4
v -1.78 1.535711 -0.4
v -1.98 1.290507 -0.4
v -1.952362 1.290507 -0.4
v -1.952362 1.290507 -0.4
v -1.78 1.511867 -0.4
v -1.78 1.535711 -0.4
v -1.952362 1.290507 -0.4
v -1.78 1.290507 -0.4
v -1.78 1.511867 -0.4
vt 0 0
vt 0 1
vt 1 1
vt 1 1
vt 1 0
vt 0 0
vt 0 0
vt 0 1
vt 1 1
vt 1 1
vt 1 0
vt 0 0
vt 0 0
vt 0 1
vt 1 1
vt 1 1
vt 1 0
vt 0 0
vt 0 0
vt 0 1
vt 1 1
vt 1 1
vt 1 0
vt 0 0
vt 0.416504 0.994629
vt 0.406006 0.994629
vt 0.398926 0.994629
vt 0.406006 0.994629
vt 0.398926 0.994629
vt 0 1
vt 0 1
vt 1 1
vt 0.406006 0.994629
vt 1 1
vt 0.416504 0.994629
vt 0.398926 0.994629
vt 0.416504 0.994629
vt 1 1
vt 0.549316 0.994629
vt 0.398926 0.994629
vt 0.406006 0.994629
vt 0.248901 0.994629
vt 0.248901 0.994629
vt 0 1
vt 0.398926 0.994629
vt 0.197144 0.98877
vt 0 0
vt 0 1
vt 0 1
vt 0.198242 0.994629
vt 0.197144 0.98877
vt 0.198242 0.994629
vt 0 1
vt 0.248901 0.994629
vt 0.248901 0.994629
vt 0.203979 0.994629
vt 0.198242 0.994629
vt 0.198242 0.944824
vt 0 0
vt 0.197144 0.98877
vt 0.331299 0.944824
vt 0 0
vt 0.198242 0.944824
vt 0.331299 0.944824
vt 0.457764 0.944824
vt 0 0
vt 0 0
vt 0.457764 0.944824
vt 0.482666 0.944824
vt 1 1
vt 0 0
vt 0.549316 0.944824
vt 0.549316 0.992188
vt 0.549316 0.994629
vt 1 1
vt 0.549316 0.960449
vt 0.549316 0.992188
vt 1 1
vt 0.549316 0.959961
vt 0.549316 0.960449
vt 1 1
vt 1 1
vt 0.549316 0.956543
vt 0.549316 0.959961
vt 1 1
vt 0.549316 0.944824
vt 0.549316 0.956543
vt 0 0
vt 0.482666 0.944824
vt 0.490479 0.944824
vt 0.549316 0.944824
vt 0 0
vt 0.490479 0.944824
vt 0.549316 0.959961
vt 0.549316 0.960449
vt 0.549316 0.956543
vt 0.549316 0.992188
vt 0.549316 0.960449
vt 0.549316 0.959961
vt 0.40625 0.054993
vt 1 1
vt 0.416748 0.054993
vt 1 1
vt 1 0
vt 0.549805 0.054993
vt 0.416748 0.054993
vt 1 1
vt 0.549805 0.054993
vt 0.39917 0.054993
vt 0.249146 0.054993
vt 1 1
vt 1 1
vt 0.40625 0.054993
vt 0.39917 0.054993
vt 0 0
vt 1 1
vt 0.198364 0.054993
vt 0.204224 0.054993
vt 0.198364 0.054993
vt 1 1
vt 1 1
vt 0.249146 0.054993
vt 0.204224 0.054993
vt 0.198364 0.054993
vt 0.198364 0.049194
vt 0 0
vt 1 0
vt 0 0
vt 0.198364 0.004997
vt 0.198364 0.004997
vt 0 0
vt 0.198364 0.049194
vt 1 0
vt 0.198364 0.004997
vt 0.331299 0.004997
vt 0.490479 0.004696
vt 1 0
vt 0.331299 0.004997
vt 0.331299 0.004997
vt 0.48291 0.004768
vt 0.490479 0.004696
vt 0.331299 0.004997
vt 0.457764 0.004997
vt 0.48291 0.004768
vt 0.490479 0.004696
vt 0.48291 0.004768
vt 0.549805 0.004803
vt 0.549805 0.004803
vt 1 0
vt 0.490479 0.004696
vt 0.549805 0.054993
vt 1 0
vt 0.549805 0.05246
vt 0.549805 0.020248
vt 0.549805 0.020554
vt 1 0
vt 1 0
vt 0.549805 0.016495
vt 0.549805 0.020248
vt 1 0
vt 0.549805 0.004803
vt 0.549805 0.016495
vt 0.549805 0.020554
vt 0.549805 0.05246
vt 1 0
vt 0 0
vt 0 1
vt 1 1
vt 1 1
vt 1 0
vt 0 0
vt 0.238403 0.621094
vt 0.825195 1
vt 0.232422 0.591309
vt 0.825195 1
vt 0.842285 0.916016
vt 0.232422 0.591309
vt 0.313232 1
vt 0.825195 1
vt 0.238403 0.621094
vt 0.228394 0.570801
vt 0.854492 0.854492
vt 0.144043 0.144043
vt 0.232422 0.591309
vt 0.842285 0.916016
vt 0.228394 0.570801
vt 0.842285 0.916016
vt 0.854492 0.854492
vt 0.228394 0.570801
vt 0.118774 0.016418
vt 1 0.138184
vt 0.11554 0
vt 1 0.138184
vt 1 0
vt 0.11554 0
vt 0.144043 0.144043
vt 0.854492 0.854492
vt 0.118774 0.016418
vt 0.854492 0.854492
vt 1 0.138184
vt 0.118774 0.016418
vt 0 0.11554
vt 0 1
vt 1 1
vt 0 0.11554
vt 1 1
vt 0.11554 0.11554
vt 0.11554 0.11554
vt 1 1
vt 1 0.11554
vt 0.11554 1
vt 1 1
vt 0.19043 0.621094
vt 0.19043 0.621094
vt 1 1
vt 0.261475 0.261475
vt 0.261475 0.261475
vt 1 1
vt 0.275391 0.19043
vt 0.279785 0.168213
vt 1 0.861328
vt 0.313232 0
vt 1 0.861328
vt 0.825195 0
vt 0.313232 0
vt 0.275391 0.19043
vt 1 1
vt 1 0.861328
vt 0.275391 0.19043
vt 1 0.861328
vt 0.279785 0.168213
vt 0.138184 0.138184
vt 0 0
vt 0.138184 1
vt 0 0
vt 0 1
vt 0.138184 1
vt 0.138184 0
vt 0 0
vt 0.138184 0.138184
vt 0.050354 0.686523
vt 0.174316 0.174316
vt 0 0.686523
vt 0.174316 0.174316
vt 0 0.174316
vt 0 0.686523
vt 0.686523 0.686523
vt 0.174316 0.174316
vt 0.050354 0.686523
vt 1 0.686523
vt 1 0.174316
vt 0.76709 0.686523
vt 1 0.174316
vt 0.194824 0.174316
vt 0.76709 0.686523
vt 0.692383 0.686523
vt 0.194824 0.174316
vt 0.686523 0.686523
vt 0.194824 0.174316
vt 0.174316 0.174316
vt 0.686523 0.686523
vt 0.76709 0.686523
vt 0.194824 0.174316
vt 0.692383 0.686523
vt 0.005013 0.267578
vt 0.004787 0.255859
vt 0.004623 0.24707
vt 0.005013 0.267578
vt 0.004787 0.255859
vt 0.004623 0.24707
vt 0.004784 0.145142
vt 0.004623 0.24707
vt 0.054657 0.267578
vt 0.047913 0.145142
vt 0.004784 0.145142
vt 0.054657 0.267578
vt 0.054657 0.267578
vt 0.05484 0.145142
vt 0.047913 0.145142
vt 0.004787 0.255859
vt 0.005013 0.267578
vt 0.013611 0.267578
vt 0.004787 0.255859
vt 0.013611 0.267578
vt -0.003859 0.253906
vt -0.003859 0.253906
vt 0.004623 0.24707
vt 0.004787 0.255859
vt -0.003859 0.253906
vt 0.054657 0.267578
vt 0.004623 0.24707
vt 0.238525 0.621094
vt 0.825195 1
vt 0.232666 0.591309
vt 0.825195 1
vt 0.842285 0.916016
vt 0.232666 0.591309
vt 0.313232 1
vt 0.825195 1
vt 0.238525 0.621094
vt 0.228638 0.571289
vt 0.854492 0.854492
vt 0.144165 0.144165
vt 0.232666 0.591309
vt 0.842285 0.916016
vt 0.228638 0.571289
vt 0.842285 0.916016
vt 0.854492 0.854492
vt 0.228638 0.571289
vt 0.118958 0.016434
vt 1 0.138184
vt 0.115723 0
vt 1 0.138184
vt 1 0
vt 0.115723 0
vt 0.144165 0.144165
vt 0.854492 0.854492
vt 0.118958 0.016434
vt 0.854492 0.854492
vt 1 0.138184
vt 0.118958 0.016434
vt 0 0.115723
vt 0 1
vt 1 1
vt 0 0.115723
vt 1 1
vt 0.115723 0.115723
vt 0.115723 0.115723
vt 1 1
vt 1 0.115723
vt 0.115723 1
vt 1 1
vt 0.190552 0.621094
vt 0.190552 0.621094
vt 1 1
vt 0.261475 0.261475
vt 0.261475 0.261475
vt 1 1
vt 0.275635 0.190552
vt 0.280029 0.168457
vt 1 0.861328
vt 0.313232 0
vt 1 0.861328
vt 0.825195 0
vt 0.313232 0
vt 0.275635 0.190552
vt 1 1
vt 1 0.861328
vt 0.275635 0.190552
vt 1 0.861328
vt 0.280029 0.168457
vt 0.138184 0.138184
vt 0 0
vt 0.138184 1
vt 0 0
vt 0 1
vt 0.138184 1
vt 0.138184 0
vt 0 0
vt 0.138184 0.138184
vt 0.050385 0.686523
vt 0.174316 0.174316
vt 0 0.686523
vt 0.174316 0.174316
vt 0 0.174316
vt 0 0.686523
vt 0.686523 0.686523
vt 0.174316 0.174316
vt 0.050385 0.686523
vt 1 0.686523
vt 1 0.174316
vt 0.76709 0.686523
vt 1 0.174316
vt 0.194824 0.174316
vt 0.76709 0.686523
vt 0.692383 0.686523
vt 0.194824 0.174316
vt 0.686523 0.686523
vt 0.194824 0.174316
vt 0.174316 0.174316
vt 0.686523 0.686523
vt 0.76709 0.686523
vt 0.194824 0.174316
vt 0.692383 0.686523
vt 0.95459 0.267822
vt 0.994629 0.267822
vt 0.994629 0.145142
vt 0.994629 0.145142
vt 0.953613 0.267822
vt 0.95459 0.267822
vt 0.994629 0.145142
vt 0.944824 0.267822
vt 0.953613 0.267822
vt 0.944824 0.267822
vt 0.994629 0.145142
vt 0.987793 0.145142
vt 0.987793 0.145142
vt 0.944824 0.255859
vt 0.944824 0.267822
vt 0.987793 0.145142
vt 0.944824 0.145142
vt 0.944824 0.255859
vn 1 0 0
vn 1 0 0
vn 1 0 0
vn 1 0 0
vn 1 0 0
vn 1 0 0
vn 0 1 0
vn 0 1 0
vn 0 1 0
vn 0 1 0
vn 0 1 0
vn 0 1 0
vn 0 0 1
vn 0 0 1
vn 0 0 1
vn 0 0 1
vn 0 0 1
vn 0 0 1
vn -1 0 0
vn -1 0 0
vn -1 0 0
vn -1 0 0
vn -1 0 0
vn -1 0 0
vn 0 0 0
vn 0 0 0
vn 0 0 0
vn 0 -1 0
vn 0 -1 0
vn 0 -1 0
vn 0 -1 0
vn 0 -1 0
vn 0 -1 0
vn 0 -1 0
vn 0 -1 0
vn 0 -1 0
vn 0 -1 0
vn 0 -1 0
vn 0 -1 0
vn 0 0 0
vn 0 0 0
vn 0 0 0
vn 0 -1 0
vn 0 -1 0
vn 0 -1 0
vn 0 -1 0
vn 0 -1 0
vn 0 -1 0
vn 0 -1 0
vn 0 -1 0
vn 0 -1 0
vn 0 -1 0
vn 0 -1 0
vn 0 -1 0
vn 0 0 0
vn 0 0 0
vn 0 0 0
vn 0 -1 0
vn 0 -1 0
vn 0 -1 0
vn 0 -1 0
vn 0 -1 0
vn 0 -1 0
vn 0 -1 0
vn 0 -1 0
vn 0 -1 0
vn 0 -1 0
vn 0 -1 0
vn 0 -1 0
vn 0 -1 0
vn 0 -1 0
vn 0 -1 0
vn 0 -1 0
vn 0 -1 0
vn 0 -1 0
vn 0 -1 0
vn 0 -1 0
vn 0 -1 0
vn 0 -1 0
vn 0 -1 0
vn 0 -1 0
vn 0 -1 0
vn 0 -1 0
vn 0 -1 0
vn 0 -1 0
vn 0 -1 0
vn 0 -1 0
vn 0 -1 0
vn 0 -1 0
vn 0 -1 0
vn 0 -1 0
vn 0 -1 0
vn 0 -1 0
vn 0 -1 0
vn 0 -1 0
vn 0 -1 0
vn 0 -1 0
vn 0 -1 0
vn 0 -1 0
vn 0 -1 0
vn 0 -1 0
vn 0 -1 0
vn 0 -1 0
vn 0 -1 0
vn 0 -1 0
vn 0 -1 0
vn 0 -1 0
vn 0 -1 0
vn 0 -1 0
vn 0 -1 0
vn 0 -1 0
vn 0 -1 0
vn 0 -1 0
vn 0 -1 0
vn 0 -1 0
vn 0 -1 0
vn 0 -1 0
vn 0 -1 0
vn 0 -1 0
vn 0 -1 0
vn 0 -1 0
vn 0 -1 0
vn 0 -1 0
vn 0 -1 0
vn 0 -1 0
vn 0 -1 0
vn 0 -1 0
vn 0 -1 0
vn 0 -1 0
vn 0 -1 0
vn 0 -1 0
vn 0 -1 0
vn 0 -1 0
vn 0 -1 0
vn 0 -1 0
vn 0 -1 0
vn 0 -1 0
vn 0 -1 0
vn 0 0 0
vn 0 0 0
vn 0 0 0
vn 0 0 0
vn 0 0 0
vn 0 0 0
vn 0 0 0
vn 0 0 0
vn 0 0 0
vn 0 -1 0
vn 0 -1 0
vn 0 -1 0
vn 0 -1 0
vn 0 -1 0
vn 0 -1 0
vn 0 -1 0
vn 0 -1 0
vn 0 -1 0
vn 0 -1 0
vn 0 -1 0
vn 0 -1 0
vn 0 -1 0
vn 0 -1 0
vn 0 -1 0
vn 0 -1 0
vn 0 -1 0
vn 0 -1 0
vn 0 0 -1
vn 0 0 -1
vn 0 0 -1
vn 0 0 -1
vn 0 0 -1
vn 0 0 -1
vn 1 0 0
vn 1 0 0
vn 1 0 0
vn 1 0 0
vn 1 0 0
vn 1 0 0
vn 1 0 0
vn 1 0 0
vn 1 0 0
vn 1 0 0
vn 1 0 0
vn 1 0 0
vn 1 0 0
vn 1 0 0
vn 1 0 0
vn 1 0 0
vn 1 0 0
vn 1 0 0
vn 1 0 0
vn 1 0 0
vn 1 0 0
vn 1 0 0
vn 1 0 0
vn 1 0 0
vn 1 0 0
vn 1 0 0
vn 1 0 0
vn 1 0 0
vn 1 0 0
vn 1 0 0
vn 0 -0.700787 0.708661
vn 0 -0.700787 0.708661
vn 0 -0.700787 0.708661
vn 0 -0.700787 0.708661
vn 0 -0.700787 0.708661
vn 0 -0.700787 0.708661
vn 0 -0.700787 0.708661
vn 0 -0.700787 0.708661
vn 0 -0.700787 0.708661
vn -1 0 0
vn -1 0 0
vn -1 0 0
vn -1 0 0
vn -1 0 0
vn -1 0 0
vn -1 0 0
vn -1 0 0
vn -1 0 0
vn -1 0 0
vn -1 0 0
vn -1 0 0
vn -1 0 0
vn -1 0 0
vn -1 0 0
vn -1 0 0
vn -1 0 0
vn -1 0 0
vn -1 0 0
vn -1 0 0
vn -1 0 0
vn 0 -0.708661 -0.700787
vn 0 -0.708661 -0.700787
vn 0 -0.708661 -0.700787
vn 0 -0.708661 -0.700787
vn 0 -0.708661 -0.700787
vn 0 -0.708661 -0.700787
vn 0 -0.708661 -0.700787
vn 0 -0.708661 -0.700787
vn 0 -0.708661 -0.700787
vn 0 0.700787 -0.708661
vn 0 0.700787 -0.708661
vn 0 0.700787 -0.708661
vn 0 0.700787 -0.708661
vn 0 0.700787 -0.708661
vn 0 0.700787 -0.708661
vn 0 0.700787 -0.708661
vn 0 0.700787 -0.708661
vn 0 0.700787 -0.708661
vn 0 0.700787 -0.708661
vn 0 0.700787 -0.708661
vn 0 0.700787 -0.708661
vn 0 0.700787 -0.708661
vn 0 0.700787 -0.708661
vn 0 0.700787 -0.708661
vn 0 0.700787 -0.708661
vn 0 0.700787 -0.708661
vn 0 0.700787 -0.708661
vn 0 0.700787 -0.708661
vn 0 0.700787 -0.708661
vn 0 0.700787 -0.708661
vn 0 0.700787 -0.708661
vn 0 0.700787 -0.708661
vn 0 0.700787 -0.708661
vn 1 0 0
vn 1 0 0
vn 1 0 0
vn 1 0 0
vn 1 0 0
vn 1 0 0
vn 0 0 -1
vn 0 0 -1
vn 0 0 -1
vn 0 0 -1
vn 0 0 -1
vn 0 0 -1
vn 0 0 -1
vn 0 0 -1
vn 0 0 -1
vn 0 0 -1
vn 0 0 -1
vn 0 0 -1
vn 0 0 -1
vn 0 0 -1
vn 0 0 -1
vn 0 0 -1
vn 0 0 -1
vn 0 0 -1
vn 0 0 -1
vn 0 0 -1
vn 0 0 -1
vn 1 0 0
vn 1 0 0
vn 1 0 0
vn 1 0 0
vn 1 0 0
vn 1 0 0
vn 1 0 0
vn 1 0 0
vn 1 0 0
vn 1 0 0
vn 1 0 0
vn 1 0 0
vn 1 0 0
vn 1 0 0
vn 1 0 0
vn 1 0 0
vn 1 0 0
vn 1 0 0
vn 1 0 0
vn 1 0 0
vn 1 0 0
vn 1 0 0
vn 1 0 0
vn 1 0 0
vn 1 0 0
vn 1 0 0
vn 1 0 0
vn 1 0 0
vn 1 0 0
vn 1 0 0
vn 0 -0.700787 0.708661
vn 0 -0.700787 0.708661
vn 0 -0.700787 0.708661
vn 0 -0.700787 0.708661
vn 0 -0.700787 0.708661
vn 0 -0.700787 0.708661
vn 0 -0.700787 0.708661
vn 0 -0.700787 0.708661
vn 0 -0.700787 0.708661
vn -1 0 0
vn -1 0 0
vn -1 0 0
vn -1 0 0
vn -1 0 0
vn -1 0 0
vn -1 0 0
vn -1 0 0
vn -1 0 0
vn -1 0 0
vn -1 0 0
vn -1 0 0
vn -1 0 0
vn -1 0 0
vn -1 0 0
vn -1 0 0
vn -1 0 0
vn -1 0 0
vn -1 0 0
vn -1 0 0
vn -1 0 0
vn 0 -0.708661 -0.700787
vn 0 -0.708661 -0.700787
vn 0 -0.708661 -0.700787
vn 0 -0.708661 -0.700787
vn 0 -0.708661 -0.700787
vn 0 -0.708661 -0.700787
vn 0 -0.708661 -0.700787
vn 0 -0.708661 -0.700787
vn 0 -0.708661 -0.700787
vn 0 0.700787 -0.708661
vn 0 0.700787 -0.708661
vn 0 0.700787 -0.708661
vn 0 0.700787 -0.708661
vn 0 0.700787 -0.708661
vn 0 0.700787 -0.708661
vn 0 0.700787 -0.708661
vn 0 0.700787 -0.708661
vn 0 0.700787 -0.708661
vn 0 0.700787 -0.708661
vn 0 0.700787 -0.708661
vn 0 0.700787 -0.708661
vn 0 0.700787 -0.708661
vn 0 0.700787 -0.708661
vn 0 0.700787 -0.708661
vn 0 0.700787 -0.708661
vn 0 0.700787 -0.708661
vn 0 0.700787 -0.708661
vn 0 0.700787 -0.708661
vn 0 0.700787 -0.708661
vn 0 0.700787 -0.708661
vn 0 0.700787 -0.708661
vn 0 0.700787 -0.708661
vn 0 0.700787 -0.708661
vn 0 0 -1
vn 0 0 -1
vn 0 0 -1
vn 0 0 -1
vn 0 0 -1
vn 0 0 -1
vn 0 0 -1
vn 0 0 -1
vn 0 0 -1
vn 0 0 -1
vn 0 0 -1
vn 0 0 -1
vn 0 0 -1
vn 0 0 -1
vn 0 0 -1
vn 0 0 -1
vn 0 0 -1
vn 0 0 -1
g surface0
usemtl [SpatialMaterial:75165]
f 3/3/3 2/2/2 1/1/1
f 6/6/6 5/5/5 4/4/4
f 9/9/9 8/8/8 7/7/7
f 12/12/12 11/11/11 10/10/10
f 15/15/15 14/14/14 13/13/13
f 18/18/18 17/17/17 16/16/16
f 21/21/21 20/20/20 19/19/19
f 24/24/24 23/23/23 22/22/22
f 27/27/27 26/26/26 25/25/25
f 30/30/30 29/29/29 28/28/28
f 33/33/33 32/32/32 31/31/31
f 36/36/36 35/35/35 34/34/34
f 39/39/39 38/38/38 37/37/37
f 42/42/42 41/41/41 40/40/40
f 45/45/45 44/44/44 43/43/43
f 48/48/48 47/47/47 46/46/46
f 51/51/51 50/50/50 49/49/49
f 54/54/54 53/53/53 52/52/52
f 57/57/57 56/56/56 55/55/55
f 60/60/60 59/59/59 58/58/58
f 63/63/63 62/62/62 61/61/61
f 66/66/66 65/65/65 64/64/64
f 69/69/69 68/68/68 67/67/67
f 72/72/72 71/71/71 70/70/70
f 75/75/75 74/74/74 73/73/73
f 78/78/78 77/77/77 76/76/76
f 81/81/81 80/80/80 79/79/79
f 84/84/84 83/83/83 82/82/82
f 87/87/87 86/86/86 85/85/85
f 90/90/90 89/89/89 88/88/88
f 93/93/93 92/92/92 91/91/91
f 96/96/96 95/95/95 94/94/94
f 99/99/99 98/98/98 97/97/97
f 102/102/102 101/101/101 100/100/100
f 105/105/105 104/104/104 103/103/103
f 108/108/108 107/107/107 106/106/106
f 111/111/111 110/110/110 109/109/109
f 114/114/114 113/113/113 112/112/112
f 117/117/117 116/116/116 115/115/115
f 120/120/120 119/119/119 118/118/118
f 123/123/123 122/122/122 121/121/121
f 126/126/126 125/125/125 124/124/124
f 129/129/129 128/128/128 127/127/127
f 132/132/132 131/131/131 130/130/130
f 135/135/135 134/134/134 133/133/133
f 138/138/138 137/137/137 136/136/136
f 141/141/141 140/140/140 139/139/139
f 144/144/144 143/143/143 142/142/142
f 147/147/147 146/146/146 145/145/145
f 150/150/150 149/149/149 148/148/148
f 153/153/153 152/152/152 151/151/151
f 156/156/156 155/155/155 154/154/154
f 159/159/159 158/158/158 157/157/157
f 162/162/162 161/161/161 160/160/160
f 165/165/165 164/164/164 163/163/163
f 168/168/168 167/167/167 166/166/166
f 171/171/171 170/170/170 169/169/169
f 174/174/174 173/173/173 172/172/172
f 177/177/177 176/176/176 175/175/175
f 180/180/180 179/179/179 178/178/178
f 183/183/183 182/182/182 181/181/181
f 186/186/186 185/185/185 184/184/184
f 189/189/189 188/188/188 187/187/187
f 192/192/192 191/191/191 190/190/190
f 195/195/195 194/194/194 193/193/193
f 198/198/198 197/197/197 196/196/196
f 201/201/201 200/200/200 199/199/199
f 204/204/204 203/203/203 202/202/202
f 207/207/207 206/206/206 205/205/205
f 210/210/210 209/209/209 208/208/208
f 213/213/213 212/212/212 211/211/211
f 216/216/216 215/215/215 214/214/214
f 219/219/219 218/218/218 217/217/217
f 222/222/222 221/221/221 220/220/220
f 225/225/225 224/224/224 223/223/223
f 228/228/228 227/227/227 226/226/226
f 231/231/231 230/230/230 229/229/229
f 234/234/234 233/233/233 232/232/232
f 237/237/237 236/236/236 235/235/235
f 240/240/240 239/239/239 238/238/238
f 243/243/243 242/242/242 241/241/241
f 246/246/246 245/245/245 244/244/244
f 249/249/249 248/248/248 247/247/247
f 252/252/252 251/251/251 250/250/250
f 255/255/255 254/254/254 253/253/253
f 258/258/258 257/257/257 256/256/256
f 261/261/261 260/260/260 259/259/259
f 264/264/264 263/263/263 262/262/262
f 267/267/267 266/266/266 265/265/265
f 270/270/270 269/269/269 268/268/268
f 273/273/273 272/272/272 271/271/271
f 276/276/276 275/275/275 274/274/274
f 279/279/279 278/278/278 277/277/277
f 282/282/282 281/281/281 280/280/280
f 285/285/285 284/284/284 283/283/283
f 288/288/288 287/287/287 286/286/286
f 291/291/291 290/290/290 289/289/289
f 294/294/294 293/293/293 292/292/292
f 297/297/297 296/296/296 295/295/295
f 300/300/300 299/299/299 298/298/298
f 303/303/303 302/302/302 301/301/301
f 306/306/306 305/305/305 304/304/304
f 309/309/309 308/308/308 307/307/307
f 312/312/312 311/311/311 310/310/310
f 315/315/315 314/314/314 313/313/313
f 318/318/318 317/317/317 316/316/316
f 321/321/321 320/320/320 319/319/319
f 324/324/324 323/323/323 322/322/322
f 327/327/327 326/326/326 325/325/325
f 330/330/330 329/329/329 328/328/328
f 333/333/333 332/332/332 331/331/331
f 336/336/336 335/335/335 334/334/334
f 339/339/339 338/338/338 337/337/337
f 342/342/342 341/341/341 340/340/340
f 345/345/345 344/344/344 343/343/343
f 348/348/348 347/347/347 346/346/346
f 351/351/351 350/350/350 349/349/349
f 354/354/354 353/353/353 352/352/352
f 357/357/357 356/356/356 355/355/355
f 360/360/360 359/359/359 358/358/358
f 363/363/363 362/362/362 361/361/361
f 366/366/366 365/365/365 364/364/364
f 369/369/369 368/368/368 367/367/367
f 372/372/372 371/371/371 370/370/370
f 375/375/375 374/374/374 373/373/373
f 378/378/378 377/377/377 376/376/376
f 381/381/381 380/380/380 379/379/379
f 384/384/384 383/383/383 382/382/382
f 387/387/387 386/386/386 385/385/385
f 390/390/390 389/389/389 388/388/388
f 393/393/393 392/392/392 391/391/391
f 396/396/396 395/395/395 394/394/394
f 399/399/399 398/398/398 397/397/397
f 402/402/402 401/401/401 400/400/400
