mtllib tool_box.mtl
o tool_box
v 1 0.681245 0.5
v 1 0.681245 -0.5
v 1 -0.118755 -0.5
v 1 -0.118755 -0.5
v 1 -0.118755 0.5
v 1 0.681245 0.5
v -0.05 0.681245 0.498332
v 0.05 0.681245 0.498142
v 0.05 0.681245 0.5
v -0.05 0.681245 0.5
v -1 0.681245 0.5
v -0.05 0.681245 0.498332
v -0.05 0.681245 0.498332
v 0.05 0.681245 0.5
v -0.05 0.681245 0.5
v 0.05 0.681245 0.498142
v 1 0.681245 0.5
v 0.05 0.681245 0.5
v -0.05 0.681245 0.498332
v -1 0.681245 0.5
v 0.38 0.681245 0.45
v 0.38 0.681245 0.45
v 0.05 0.681245 0.498142
v -0.05 0.681245 0.498332
v 0.38 0.681245 0.45
v 1 0.681245 0.5
v 0.05 0.681245 0.498142
v 0.9 0.681245 0.45
v 1 0.681245 0.5
v 0.38 0.681245 0.45
v -1 0.681245 0.5
v -1 0.681245 -0.5
v -0.95 0.681245 0.45
v 0.38 0.681245 0.45
v -1 0.681245 0.5
v -0.95 0.681245 0.45
v -0.95 0.681245 0.45
v -1 0.681245 -0.5
v -0.95 0.681245 -0.18
v -0.95 0.681245 -0.18
v -1 0.681245 -0.5
v -0.95 0.681245 -0.45
v -0.9 0.681245 -0.45
v -0.95 0.681245 -0.45
v -1 0.681245 -0.5
v -1 0.681245 -0.5
v 1 0.681245 -0.5
v 0.95 0.681245 -0.45
v 1 0.681245 -0.5
v 1 0.681245 0.5
v 0.95 0.681245 -0.45
v 0.95 0.681245 -0.45
v 1 0.681245 0.5
v 0.95 0.681245 0.18
v 0.95 0.681245 0.45
v 1 0.681245 0.5
v 0.9 0.681245 0.45
v 0.95 0.681245 0.18
v 1 0.681245 0.5
v 0.95 0.681245 0.45
v -1 0.681245 -0.5
v 0.95 0.681245 -0.45
v -0.38 0.681245 -0.45
v -0.38 0.681245 -0.45
v -0.9 0.681245 -0.45
v -1 0.681245 -0.5
v 1 0.681245 0.5
v 1 -0.118755 0.5
v -1 -0.118755 0.5
v -1 -0.118755 0.5
v -1 0.681245 0.5
v -0.05 0.681245 0.5
v 0.05 0.681245 0.5
v 1 0.681245 0.5
v 0.05 0.483976 0.5
v 1 0.681245 0.5
v -1 -0.118755 0.5
v 0.048761 0.481498 0.5
v 0.05 0.483976 0.5
v 1 0.681245 0.5
v 0.05 0.481498 0.5
v -1 -0.118755 0.5
v -0.05 0.681245 0.5
v -0.05 0.679021 0.5
v -0.05 0.481498 0.5
v -1 -0.118755 0.5
v -0.05 0.679021 0.5
v 0.048761 0.481498 0.5
v -1 -0.118755 0.5
v -0.05 0.481498 0.5
v -1 0.681245 -0.5
v -1 0.681245 0.5
v -1 -0.118755 0.5
v -1 -0.118755 0.5
v -1 -0.118755 -0.5
v -1 0.681245 -0.5
v -1 -0.118755 0.5
v 1 -0.118755 0.5
v 1 -0.118755 -0.5
v 1 -0.118755 -0.5
v -1 -0.118755 -0.5
v -1 -0.118755 0.5
v 1 -0.118755 -0.5
v 1 0.681245 -0.5
v -1 0.681245 -0.5
v -1 0.681245 -0.5
v -1 -0.118755 -0.5
v 1 -0.118755 -0.5
v 0.95 0.681245 -0.45
v 0.95 0.681245 0.18
v 0.95 -0.018755 -0.45
v 0.95 0.681245 0.18
v 0.95 0.681245 0.45
v 0.95 -0.018755 -0.45
v 0.95 -0.018755 -0.45
v 0.95 0.681245 0.45
v 0.95 -0.018755 0.45
v 0.95 0.681245 0.45
v 0.9 0.681245 0.45
v 0.95 -0.018755 0.45
v 0.95 -0.018755 0.45
v 0.9 0.681245 0.45
v -0.95 -0.018755 0.45
v 0.9 0.681245 0.45
v 0.38 0.681245 0.45
v -0.95 -0.018755 0.45
v 0.38 0.681245 0.45
v -0.95 0.681245 0.45
v -0.95 -0.018755 0.45
v -0.95 0.681245 0.45
v -0.95 0.681245 -0.18
v -0.95 -0.018755 0.45
v -0.95 0.681245 -0.18
v -0.95 0.681245 -0.45
v -0.95 -0.018755 0.45
v -0.95 -0.018755 0.45
v -0.95 0.681245 -0.45
v -0.95 -0.018755 -0.45
v -0.95 -0.018755 0.45
v 0.95 -0.018755 -0.45
v 0.95 -0.018755 0.45
v 0.95 -0.018755 -0.45
v -0.95 -0.018755 0.45
v -0.95 -0.018755 -0.45
v -0.38 0.681245 -0.45
v 0.95 0.681245 -0.45
v 0.95 -0.018755 -0.45
v -0.95 0.681245 -0.45
v -0.9 0.681245 -0.45
v -0.95 -0.018755 -0.45
v -0.95 -0.018755 -0.45
v -0.9 0.681245 -0.45
v 0.95 -0.018755 -0.45
v -0.9 0.681245 -0.45
v -0.38 0.681245 -0.45
v 0.95 -0.018755 -0.45
v 0.05 0.483976 0.5
v 0.05 0.681498 0.648142
v 0.05 0.681245 0.5
v 0.05 0.481498 0.5
v 0.05 0.481498 0.648142
v 0.05 0.681498 0.648142
v 0.05 0.481498 0.5
v 0.05 0.681498 0.648142
v 0.05 0.483976 0.5
v 0.05 0.681498 0.648142
v -0.05 0.681498 0.648142
v -0.05 0.681245 0.498332
v -0.05 0.681245 0.498332
v 0.05 0.681245 0.498142
v 0.05 0.681498 0.648142
v 0.05 0.681498 0.648142
v 0.05 0.481498 0.648142
v -0.05 0.481498 0.648142
v -0.05 0.481498 0.648142
v -0.05 0.681498 0.648142
v 0.05 0.681498 0.648142
v -0.05 0.681245 0.5
v -0.05 0.681498 0.648142
v -0.05 0.481498 0.648142
v -0.05 0.681245 0.5
v -0.05 0.481498 0.648142
v -0.05 0.679021 0.5
v -0.05 0.679021 0.5
v -0.05 0.481498 0.648142
v -0.05 0.481498 0.5
v 0.048761 0.481498 0.5
v -0.05 0.481498 0.648142
v 0.05 0.481498 0.5
v -0.05 0.481498 0.648142
v 0.05 0.481498 0.648142
v 0.05 0.481498 0.5
v -0.05 0.481498 0.5
v -0.05 0.481498 0.648142
v 0.048761 0.481498 0.5
vt 0 0
vt 0 1
vt 1 1
vt 1 1
vt 1 0
vt 0 0
vt 0.00168 0.524902
vt 0.001857 0.474854
vt 0 0.474854
vt 0 0.524902
vt 0 1
vt 0.00168 0.524902
vt 0.00168 0.524902
vt 0 0.474854
vt 0 0.524902
vt 0.001857 0.474854
vt 0 0
vt 0 0.474854
vt 0.00168 0.524902
vt 0 1
vt 0.049988 0.309814
vt 0.049988 0.309814
vt 0.001857 0.474854
vt 0.00168 0.524902
vt 0.049988 0.309814
vt 0 0
vt 0.001857 0.474854
vt 0.049988 0.049988
vt 0 0
vt 0.049988 0.309814
vt 0 1
vt 1 1
vt 0.049988 0.974609
vt 0.049988 0.309814
vt 0 1
vt 0.049988 0.974609
vt 0.049988 0.974609
vt 1 1
vt 0.679688 0.974609
vt 0.679688 0.974609
vt 1 1
vt 0.949707 0.974609
vt 0.949707 0.949707
vt 0.949707 0.974609
vt 1 1
vt 1 1
vt 1 0
vt 0.949707 0.024994
vt 1 0
vt 0 0
vt 0.949707 0.024994
vt 0.949707 0.024994
vt 0 0
vt 0.319824 0.024994
vt 0.049988 0.024994
vt 0 0
vt 0.049988 0.049988
vt 0.319824 0.024994
vt 0 0
vt 0.049988 0.024994
vt 1 1
vt 0.949707 0.024994
vt 0.949707 0.689941
vt 0.949707 0.689941
vt 0.949707 0.949707
vt 1 1
vt 0 0
vt 0 1
vt 1 1
vt 1 1
vt 1 0
vt 0.524902 0
vt 0.474854 0
vt 0 0
vt 0.474854 0.246704
vt 0 0
vt 1 1
vt 0.475342 0.250488
vt 0.474854 0.246704
vt 0 0
vt 0.474854 0.249756
vt 1 1
vt 0.524902 0
vt 0.524902 0.003096
vt 0.524902 0.249756
vt 1 1
vt 0.524902 0.003096
vt 0.475342 0.250488
vt 1 1
vt 0.524902 0.249756
vt 0 0
vt 0 1
vt 1 1
vt 1 1
vt 1 0
vt 0 0
vt 0 0
vt 0 1
vt 1 1
vt 1 1
vt 1 0
vt 0 0
vt 0 0
vt 0 1
vt 1 1
vt 1 1
vt 1 0
vt 0 0
vt 0.299805 1
vt 0.299805 0.299805
vt 1 1
vt 0.299805 0.299805
vt 0.299805 0
vt 1 1
vt 1 1
vt 0.299805 0
vt 1 0
vt 0 0.299805
vt 0.026306 0.299805
vt 0 1
vt 0 1
vt 0.026306 0.299805
vt 1 1
vt 0.026306 0.299805
vt 0.299805 0.299805
vt 1 1
vt 0.299805 0.299805
vt 1 0.299805
vt 1 1
vt 0.299805 1
vt 0.299805 0.299805
vt 1 1
vt 0.299805 0.299805
vt 0.299805 0
vt 1 1
vt 1 1
vt 0.299805 0
vt 1 0
vt 0 0
vt 1 1
vt 0 1
vt 1 1
vt 0 0
vt 1 0
vt 0.699707 0.699707
vt 0 0.699707
vt 0 0
vt 1 0.699707
vt 0.973633 0.699707
vt 1 0
vt 1 0
vt 0.973633 0.699707
vt 0 0
vt 0.973633 0.699707
vt 0.699707 0.699707
vt 0 0
vt 0.987305 0.987305
vt 0 0
vt 0 0.987305
vt 1 0.987305
vt 1 0
vt 0 0
vt 1 0.987305
vt 0 0
vt 0.987305 0.987305
vt 0 0
vt 0 1
vt 1 1
vt 1 1
vt 1 0
vt 0 0
vt 0 0
vt 0 1
vt 1 1
vt 1 1
vt 1 0
vt 0 0
vt 0 0.012497
vt 0 1
vt 1 1
vt 0 0.012497
vt 1 1
vt 0.012383 0.012383
vt 0.012383 0.012383
vt 1 1
vt 1 0.012383
vt 0.987305 0.987305
vt 0 0
vt 0.987305 1
vt 0 0
vt 0 1
vt 0.987305 1
vt 0.987305 0
vt 0 0
vt 0.987305 0.987305
vn 1 0 0
vn 1 0 0
vn 1 0 0
vn 1 0 0
vn 1 0 0
vn 1 0 0
vn 0 1 0
vn 0 1 0
vn 0 1 0
vn 0 1 0
vn 0 1 0
vn 0 1 0
vn 0 1 0
vn 0 1 0
vn 0 1 0
vn 0 1 0
vn 0 1 0
vn 0 1 0
vn 0 1 0
vn 0 1 0
vn 0 1 0
vn 0 1 0
vn 0 1 0
vn 0 1 0
vn 0 1 0
vn 0 1 0
vn 0 1 0
vn 0 1 0
vn 0 1 0
vn 0 1 0
vn 0 1 0
vn 0 1 0
vn 0 1 0
vn 0 1 0
vn 0 1 0
vn 0 1 0
vn 0 1 0
vn 0 1 0
vn 0 1 0
vn 0 1 0
vn 0 1 0
vn 0 1 0
vn 0 1 0
vn 0 1 0
vn 0 1 0
vn 0 1 0
vn 0 1 0
vn 0 1 0
vn 0 1 0
vn 0 1 0
vn 0 1 0
vn 0 1 0
vn 0 1 0
vn 0 1 0
vn 0 1 0
vn 0 1 0
vn 0 1 0
vn 0 1 0
vn 0 1 0
vn 0 1 0
vn 0 1 0
vn 0 1 0
vn 0 1 0
vn 0 1 0
vn 0 1 0
vn 0 1 0
vn 0 0 1
vn 0 0 1
vn 0 0 1
vn 0 0 1
vn 0 0 1
vn 0 0 1
vn 0 0 1
vn 0 0 1
vn 0 0 1
vn 0 0 1
vn 0 0 1
vn 0 0 1
vn 0 0 1
vn 0 0 1
vn 0 0 1
vn 0 0 1
vn 0 0 1
vn 0 0 1
vn 0 0 1
vn 0 0 1
vn 0 0 1
vn 0 0 1
vn 0 0 1
vn 0 0 1
vn -1 0 0
vn -1 0 0
vn -1 0 0
vn -1 0 0
vn -1 0 0
vn -1 0 0
vn 0 -1 0
vn 0 -1 0
vn 0 -1 0
vn 0 -1 0
vn 0 -1 0
vn 0 -1 0
vn 0 0 -1
vn 0 0 -1
vn 0 0 -1
vn 0 0 -1
vn 0 0 -1
vn 0 0 -1
vn -1 0 0
vn -1 0 0
vn -1 0 0
vn -1 0 0
vn -1 0 0
vn -1 0 0
vn -1 0 0
vn -1 0 0
vn -1 0 0
vn 0 0 -1
vn 0 0 -1
vn 0 0 -1
vn 0 0 -1
vn 0 0 -1
vn 0 0 -1
vn 0 0 -1
vn 0 0 -1
vn 0 0 -1
vn 0 0 -1
vn 0 0 -1
vn 0 0 -1
vn 1 0 0
vn 1 0 0
vn 1 0 0
vn 1 0 0
vn 1 0 0
vn 1 0 0
vn 1 0 0
vn 1 0 0
vn 1 0 0
vn 0 1 0
vn 0 1 0
vn 0 1 0
vn 0 1 0
vn 0 1 0
vn 0 1 0
vn 0 0 1
vn 0 0 1
vn 0 0 1
vn 0 0 1
vn 0 0 1
vn 0 0 1
vn 0 0 1
vn 0 0 1
vn 0 0 1
vn 0 0 1
vn 0 0 1
vn 0 0 1
vn 1 0 0
vn 1 0 0
vn 1 0 0
vn 1 0 0
vn 1 0 0
vn 1 0 0
vn 1 0 0
vn 1 0 0
vn 1 0 0
vn 0 0.992126 0
vn 0 0.992126 0
vn 0 0.992126 0
vn 0 0.992126 0
vn 0 0.992126 0
vn 0 0.992126 0
vn 0 0 1
vn 0 0 1
vn 0 0 1
vn 0 0 1
vn 0 0 1
vn 0 0 1
vn -1 0 0
vn -1 0 0
vn -1 0 0
vn -1 0 0
vn -1 0 0
vn -1 0 0
vn -1 0 0
vn -1 0 0
vn -1 0 0
vn 0 -1 0
vn 0 -1 0
vn 0 -1 0
vn 0 -1 0
vn 0 -1 0
vn 0 -1 0
vn 0 -1 0
vn 0 -1 0
vn 0 -1 0
g surface0
usemtl [SpatialMaterial:176224]
f 3/3/3 2/2/2 1/1/1
f 6/6/6 5/5/5 4/4/4
f 9/9/9 8/8/8 7/7/7
f 12/12/12 11/11/11 10/10/10
f 15/15/15 14/14/14 13/13/13
f 18/18/18 17/17/17 16/16/16
f 21/21/21 20/20/20 19/19/19
f 24/24/24 23/23/23 22/22/22
f 27/27/27 26/26/26 25/25/25
f 30/30/30 29/29/29 28/28/28
f 33/33/33 32/32/32 31/31/31
f 36/36/36 35/35/35 34/34/34
f 39/39/39 38/38/38 37/37/37
f 42/42/42 41/41/41 40/40/40
f 45/45/45 44/44/44 43/43/43
f 48/48/48 47/47/47 46/46/46
f 51/51/51 50/50/50 49/49/49
f 54/54/54 53/53/53 52/52/52
f 57/57/57 56/56/56 55/55/55
f 60/60/60 59/59/59 58/58/58
f 63/63/63 62/62/62 61/61/61
f 66/66/66 65/65/65 64/64/64
f 69/69/69 68/68/68 67/67/67
f 72/72/72 71/71/71 70/70/70
f 75/75/75 74/74/74 73/73/73
f 78/78/78 77/77/77 76/76/76
f 81/81/81 80/80/80 79/79/79
f 84/84/84 83/83/83 82/82/82
f 87/87/87 86/86/86 85/85/85
f 90/90/90 89/89/89 88/88/88
f 93/93/93 92/92/92 91/91/91
f 96/96/96 95/95/95 94/94/94
f 99/99/99 98/98/98 97/97/97
f 102/102/102 101/101/101 100/100/100
f 105/105/105 104/104/104 103/103/103
f 108/108/108 107/107/107 106/106/106
f 111/111/111 110/110/110 109/109/109
f 114/114/114 113/113/113 112/112/112
f 117/117/117 116/116/116 115/115/115
f 120/120/120 119/119/119 118/118/118
f 123/123/123 122/122/122 121/121/121
f 126/126/126 125/125/125 124/124/124
f 129/129/129 128/128/128 127/127/127
f 132/132/132 131/131/131 130/130/130
f 135/135/135 134/134/134 133/133/133
f 138/138/138 137/137/137 136/136/136
f 141/141/141 140/140/140 139/139/139
f 144/144/144 143/143/143 142/142/142
f 147/147/147 146/146/146 145/145/145
f 150/150/150 149/149/149 148/148/148
f 153/153/153 152/152/152 151/151/151
f 156/156/156 155/155/155 154/154/154
f 159/159/159 158/158/158 157/157/157
f 162/162/162 161/161/161 160/160/160
f 165/165/165 164/164/164 163/163/163
f 168/168/168 167/167/167 166/166/166
f 171/171/171 170/170/170 169/169/169
f 174/174/174 173/173/173 172/172/172
f 177/177/177 176/176/176 175/175/175
f 180/180/180 179/179/179 178/178/178
f 183/183/183 182/182/182 181/181/181
f 186/186/186 185/185/185 184/184/184
f 189/189/189 188/188/188 187/187/187
f 192/192/192 191/191/191 190/190/190
f 195/195/195 194/194/194 193/193/193
